<?xml version="1.0" encoding="UTF-8"?>
<svg version="1.1" xmlns="http://www.w3.org/2000/svg" width="812" height="518">
<path d="M0 0 C267.96 0 535.92 0 812 0 C812 170.94 812 341.88 812 518 C544.04 518 276.08 518 0 518 C0 347.06 0 176.12 0 0 Z " fill="#31C187" transform="translate(0,0)"/>
<path d="M0 0 C0.9348745 -0.00467997 1.869749 -0.00935994 2.83295304 -0.01418173 C5.97911495 -0.026189 9.12484587 -0.01665204 12.27101135 -0.00723267 C14.52109533 -0.01129584 16.77117731 -0.01663629 19.02125549 -0.02316284 C25.1431015 -0.03687317 31.26479633 -0.03152223 37.38664508 -0.02202559 C43.78430775 -0.01444729 50.1819572 -0.02146958 56.57962036 -0.02618408 C68.01489949 -0.03199765 79.45009466 -0.02265477 90.88535959 -0.00740607 C101.25564359 0.00599439 111.62582684 0.00367236 121.99610901 -0.01016235 C134.03393907 -0.02621414 146.071693 -0.03219419 158.10953766 -0.02332556 C164.48349525 -0.01864225 170.85738343 -0.01804219 177.23133659 -0.02793503 C183.22394358 -0.03658566 189.21635989 -0.0306175 195.20894623 -0.01325226 C197.41163122 -0.00927707 199.61433219 -0.01043901 201.81701088 -0.01704025 C204.81751609 -0.02520505 207.81740541 -0.01499528 210.81787109 0 C211.69520053 -0.00669217 212.57252996 -0.01338433 213.47644514 -0.02027929 C214.28025682 -0.01245605 215.08406851 -0.0046328 215.91223812 0.00342751 C216.60474067 0.00391456 217.29724321 0.00440162 218.01073068 0.00490344 C220.71407465 0.52312102 222.0399949 1.42703669 223.97242737 3.38095093 C224.47382402 5.7110247 224.47382402 5.7110247 224.47579193 8.51783657 C224.48622292 9.58726197 224.49665391 10.65668736 224.50740099 11.75851959 C224.4984781 12.93768277 224.48955522 14.11684594 224.48036194 15.33174133 C224.4866019 16.58104937 224.49284186 17.8303574 224.49927092 19.11752325 C224.516019 22.59204957 224.50769344 26.06613826 224.49532604 29.54066646 C224.48629996 33.28513215 224.50023314 37.02952099 224.51124573 40.77397156 C224.52906231 48.11230736 224.52517692 55.45047982 224.51359516 62.78882211 C224.50457273 68.75173596 224.50333167 74.71460394 224.50769043 80.67752266 C224.50830336 81.52522184 224.50891629 82.37292102 224.5095478 83.24630805 C224.51082667 84.96824253 224.51212352 86.69017701 224.51343817 88.41211147 C224.52485333 104.57132365 224.51171596 120.73044517 224.4902367 136.88964248 C224.47236809 150.76203488 224.47546604 164.63429338 224.49391174 178.50668335 C224.51530751 194.60531923 224.5237512 210.70387556 224.51146269 226.80252367 C224.51018846 228.51853691 224.50893098 230.23455017 224.50769043 231.95056343 C224.50676478 233.21711833 224.50676478 233.21711833 224.50582042 234.50926019 C224.50236339 240.46611754 224.50820352 246.42292454 224.51760864 252.37977409 C224.5288158 259.63772743 224.52581587 266.89550768 224.50448567 274.15344112 C224.49395731 277.85826692 224.48988341 281.56280392 224.50308228 285.26762772 C224.51715987 289.27972997 224.50037621 293.29110011 224.48036194 297.30317688 C224.48928483 298.48010933 224.49820771 299.65704179 224.50740099 300.86963886 C224.49175451 302.47768858 224.49175451 302.47768858 224.47579193 304.11822414 C224.47514252 305.04463441 224.47449311 305.97104468 224.47382402 306.92552799 C223.80788206 310.18675669 222.58837753 311.37579249 219.97242737 313.38095093 C218.01829338 313.88234758 218.01829338 313.88234758 215.9306488 313.88431549 C214.73108142 313.89996197 214.73108142 313.89996197 213.50728035 313.91592455 C212.63452398 313.90700166 211.76176762 313.89807878 210.86256409 313.8888855 C209.46509603 313.89824544 209.46509603 313.89824544 208.03939629 313.90779448 C204.91004688 313.92378012 201.78147039 313.91109825 198.65211487 313.89852905 C196.41173344 313.90394768 194.17135558 313.91106888 191.9309845 313.91976929 C185.84014942 313.93803624 179.74958474 313.93092106 173.65874481 313.91825294 C167.29178119 313.9081428 160.92484109 313.9175131 154.55787659 313.92379761 C143.17922199 313.93154657 131.80070499 313.91909718 120.42207789 313.89876026 C110.10351351 313.88088899 99.78512913 313.88399303 89.46656799 313.9024353 C77.48622205 313.92383762 65.50598549 313.93181147 53.52561378 313.91998625 C47.18295087 313.91374236 40.84041197 313.91294035 34.49775696 313.9261322 C28.53544999 313.93766623 22.57348375 313.92970947 16.61121368 313.90655518 C14.41981828 313.90125503 12.22839433 313.90280404 10.03701019 313.91160583 C7.05171335 313.92249312 4.06751686 313.90887991 1.08229065 313.8888855 C-0.2268439 313.90226983 -0.2268439 313.90226983 -1.56242561 313.91592455 C-2.3621372 313.90549356 -3.16184879 313.89506257 -3.98579407 313.88431549 C-4.67471678 313.88366608 -5.36363949 313.88301667 -6.07343864 313.88234758 C-8.99845191 313.13184026 -10.19953572 311.74217095 -12.02757263 309.38095093 C-12.52781862 306.92552799 -12.52781862 306.92552799 -12.52814388 304.11822414 C-12.53795817 303.046191 -12.54777246 301.97415786 -12.55788416 300.86963886 C-12.54827915 299.69270641 -12.53867414 298.51577395 -12.52877808 297.30317688 C-12.53431247 296.05230886 -12.53984687 294.80144083 -12.54554898 293.51266772 C-12.56033249 290.03845995 -12.55010568 286.56470408 -12.53581226 283.09051073 C-12.52472272 279.34472614 -12.53663829 275.59900601 -12.5456543 271.85322571 C-12.5596022 264.51468641 -12.55201941 257.17631894 -12.53697871 249.8377878 C-12.52013802 241.29669391 -12.52332638 232.75564305 -12.52707279 224.21453769 C-12.53295412 208.97855146 -12.51876865 193.74264782 -12.49412537 178.50668335 C-12.47019957 163.71270655 -12.46312239 148.91884009 -12.47361755 134.12484741 C-12.48501879 118.02475416 -12.486967 101.92471197 -12.47251946 85.82461935 C-12.47099357 84.10892046 -12.46947322 82.39322156 -12.46795845 80.67752266 C-12.46720064 79.833307 -12.46644282 78.98909135 -12.46566204 78.1192934 C-12.46091339 72.16146539 -12.46277473 66.20366012 -12.46702385 60.24583244 C-12.4719431 52.9889942 -12.46599928 45.73226043 -12.44612955 38.47544616 C-12.43623683 34.77078401 -12.43117364 31.06628114 -12.43902206 27.36161041 C-12.44734397 23.35150214 -12.4325394 19.34182082 -12.41525269 15.33174133 C-12.42126273 14.15257816 -12.42727278 12.97341498 -12.43346494 11.75851959 C-12.425025 10.68909419 -12.41658506 9.6196688 -12.40788937 8.51783657 C-12.40686024 7.59158865 -12.40583111 6.66534074 -12.40477079 5.7110247 C-12.02757263 3.38095093 -12.02757263 3.38095093 -10.74969959 1.58349079 C-7.61347039 -0.6064991 -3.6952704 -0.0281156 0 0 Z " fill="#36C28A" transform="translate(301.02757263183594,60.619049072265625)"/>
<path d="M0 0 C1.19193388 -0.00657338 1.19193388 -0.00657338 2.40794724 -0.01327956 C5.0794369 -0.02666957 7.75089356 -0.03284683 10.42240906 -0.03897095 C12.33427581 -0.04687165 14.24614107 -0.05514058 16.15800476 -0.06375122 C22.4436348 -0.08997133 28.72927151 -0.10527717 35.01493835 -0.11953735 C37.17767529 -0.12489672 39.34041218 -0.13027423 41.50314903 -0.13566971 C50.49766239 -0.15729691 59.49217395 -0.17603475 68.48670673 -0.1872921 C81.38379884 -0.20353939 94.28059007 -0.23673806 107.17756873 -0.29369295 C116.2426162 -0.33236334 125.30758308 -0.35192126 134.37271088 -0.35721266 C139.78886648 -0.3608696 145.20470116 -0.37292771 150.62076759 -0.4053154 C155.71553042 -0.43534544 160.80977728 -0.44172588 165.90460968 -0.42993164 C167.77429055 -0.42971049 169.64399503 -0.43804949 171.51359367 -0.45558548 C174.06713984 -0.47823269 176.61880792 -0.47000393 179.17236328 -0.45410156 C180.28118055 -0.47492469 180.28118055 -0.47492469 181.41239816 -0.49616849 C187.10122834 -0.40892508 189.44233012 1.24104199 193.2766571 5.15390015 C195.43721716 11.5722993 192.13543264 20.46598315 190.67900085 26.8140564 C190.40913864 28.02584061 190.13927643 29.23762482 189.86123657 30.48612976 C189.13688521 33.73103046 188.40438725 36.97386496 187.6676712 40.21596527 C186.90956661 43.5599382 186.16098656 46.9060397 185.41191101 50.25204468 C184.52175384 54.22638869 183.63095845 58.20057878 182.73551941 62.17373657 C181.10080775 69.43577523 179.49805078 76.70276106 177.96025085 83.9859314 C177.79840805 84.74811478 177.63656525 85.51029816 177.46981812 86.295578 C176.76032956 89.63853144 176.05839693 92.98249828 175.37016296 96.32992554 C175.01063538 98.01783203 175.01063538 98.01783203 174.6438446 99.73983765 C174.44903503 100.67875854 174.25422546 101.61767944 174.05351257 102.58505249 C172.97662383 106.14602778 171.75451079 109.1796218 168.56835842 111.28009987 C165.59411738 112.41414497 163.12931754 112.41190405 159.94488525 112.42132568 C157.99118515 112.43412064 157.99118515 112.43412064 155.99801636 112.44717407 C154.55647266 112.44647507 153.11492905 112.44555201 151.67338562 112.44442749 C150.15383066 112.45041242 148.63427875 112.45721789 147.11473083 112.46478271 C142.98871425 112.48245196 138.86278062 112.48713844 134.73672986 112.48841429 C131.29232657 112.49031367 127.8479426 112.49767152 124.40354675 112.50475848 C116.27782553 112.52104298 108.15214863 112.52592731 100.02641296 112.52450562 C91.64322808 112.52330364 83.26030042 112.54441646 74.87718064 112.57599294 C67.67961686 112.60213807 60.4821372 112.61287368 53.28452629 112.6115948 C48.98573034 112.61108471 44.68716305 112.61679369 40.38841438 112.6379509 C36.3458809 112.65730414 32.30379493 112.65747804 28.26124573 112.64291763 C26.77817062 112.6408249 25.29506771 112.64555815 23.81204033 112.65763855 C21.78655417 112.67306837 19.7609157 112.66139422 17.7354126 112.64837646 C16.03558401 112.65001077 16.03558401 112.65001077 14.30141544 112.65167809 C10.58204284 112.03958898 8.92943174 110.78747975 6.2766571 108.15390015 C5.12211609 105.21469116 5.12211609 105.21469116 4.33525085 101.5953064 C4.1808403 100.91134293 4.02642975 100.22737946 3.86734009 99.52268982 C3.51708346 97.95667425 3.17636627 96.38850629 2.84324646 94.8187561 C2.2218054 91.89591453 1.57320445 88.97984715 0.92167664 86.06356812 C-0.63212431 79.07849916 -2.14736175 72.08529604 -3.6608429 65.09140015 C-4.4352031 61.52574717 -5.2102448 57.96024293 -5.98545837 54.39477539 C-6.49339773 52.054284 -6.99973939 49.71344528 -7.50444031 47.37225342 C-8.71202143 41.77424991 -9.93850148 36.18219536 -11.21601868 30.59970093 C-11.56691307 29.04660973 -11.56691307 29.04660973 -11.92489624 27.46214294 C-12.36007875 25.53996185 -12.80253486 23.61940506 -13.25408936 21.70100403 C-14.48051204 16.24407957 -15.48483849 10.75438222 -14.7233429 5.15390015 C-10.82720637 -0.22008126 -6.15123978 0.00410485 0 0 Z " fill="#33C188" transform="translate(317.7233428955078,236.84609985351563)"/>
<path d="M0 0 C1.05006839 -0.0055344 2.10013679 -0.01106879 3.18202543 -0.0167709 C6.71212416 -0.03041957 10.24152105 -0.01538474 13.77160645 -0.00050354 C16.29769695 -0.00428516 18.82378539 -0.00978391 21.34986877 -0.01687622 C27.50565472 -0.0294142 33.66117898 -0.02324511 39.81695187 -0.00820064 C46.98345734 0.00864822 54.14991159 0.00545062 61.31643075 0.00170528 C74.10214926 -0.00417517 86.88776934 0.0100055 99.67346191 0.03465271 C112.08398122 0.05857405 124.494369 0.06565722 136.90490723 0.05516052 C150.4146395 0.04375463 163.92431092 0.04181717 177.43404245 0.05625862 C178.87424627 0.05778448 180.3144501 0.05930484 181.75465393 0.06081963 C182.46328747 0.06157744 183.17192101 0.06233525 183.90202829 0.06311603 C188.89908579 0.06786141 193.89611613 0.06600563 198.89317322 0.06175423 C205.61711227 0.05631689 212.34084178 0.06705585 219.06475639 0.08870888 C221.53673626 0.0942869 224.00873365 0.0947328 226.4807148 0.08975601 C229.84680427 0.08382763 233.21233052 0.09626182 236.57836914 0.11352539 C237.56396301 0.10751535 238.54955688 0.1015053 239.56501722 0.09531313 C240.91611232 0.10797304 240.91611232 0.10797304 242.29450226 0.12088871 C243.07152009 0.12191784 243.84853791 0.12294697 244.64910173 0.12400728 C247.39780666 0.60847752 248.77994372 1.58709469 250.78918457 3.50120544 C251.29711914 6.56845093 251.29711914 6.56845093 251.3067627 10.38768005 C251.31727661 11.43208504 251.31727661 11.43208504 251.32800293 12.49758911 C251.34561277 14.79998118 251.33394964 17.10114455 251.32043457 19.40354919 C251.32312897 21.00393917 251.32701095 22.60432755 251.33203125 24.20471191 C251.33793055 27.55980506 251.32935102 30.91447234 251.31066895 34.26951599 C251.28789703 38.56842741 251.30098778 42.86633899 251.3249588 47.16521358 C251.33942113 50.47068803 251.33480859 53.77592593 251.32444763 57.08140755 C251.32178057 58.66623109 251.32504944 60.25107616 251.33436584 61.83587456 C251.3445372 64.05293914 251.32902442 66.26839166 251.3067627 68.4853363 C251.30358032 69.74647751 251.30039795 71.00761871 251.29711914 72.30697632 C250.78918457 75.50120544 250.78918457 75.50120544 249.39561462 77.66909885 C245.33814713 80.52116577 241.42451142 80.05301364 236.57836914 80.00914001 C235.52830075 80.01537998 234.47823236 80.02161994 233.39634371 80.02804899 C229.86625716 80.0440453 226.33685476 80.03134831 222.8067627 80.01878357 C220.28067114 80.02420171 217.75458275 80.03132263 215.22850037 80.0400238 C209.07272225 80.05639746 202.91719885 80.05396279 196.76141727 80.04237324 C191.75914653 80.03334479 186.75693048 80.03211235 181.75465393 80.03646851 C181.04308294 80.03708144 180.33151196 80.03769437 179.59837821 80.03832588 C178.15289826 80.03960476 176.70741832 80.04090161 175.26193839 80.04221624 C161.70321257 80.05362624 148.14459487 80.0405018 134.58588678 80.01901478 C122.94835767 80.00114338 111.31098814 80.00424737 99.67346191 80.02268982 C86.16372343 80.04408917 72.65407975 80.05252756 59.14432669 80.04024076 C57.70412288 80.03896655 56.26391905 80.03770907 54.82371521 80.03646851 C54.11508167 80.0358514 53.40644813 80.0352343 52.67634085 80.0345985 C47.67926942 80.03114278 42.68225805 80.0369787 37.68519592 80.04638672 C30.96121403 80.05876758 24.23758065 80.04997062 17.51361275 80.02680969 C15.04163173 80.02150761 12.56962539 80.02306181 10.09765434 80.03186035 C6.73142282 80.04273978 3.36616871 80.02914325 0 80.00914001 C-0.98559387 80.0180629 -1.97118773 80.02698579 -2.98664808 80.03617907 C-9.55901367 79.96006717 -9.55901367 79.96006717 -12.81724548 77.66630554 C-14.80448043 74.57886627 -14.71901283 72.24922945 -14.72839355 68.59300232 C-14.73540283 67.90633987 -14.74241211 67.21967743 -14.74963379 66.51220703 C-14.76720555 64.24770894 -14.75559538 61.98446572 -14.74206543 59.71995544 C-14.74476062 58.14341492 -14.74864326 56.56687602 -14.75366211 54.99034119 C-14.75955599 51.68830011 -14.75099821 48.38669222 -14.7322998 45.08470154 C-14.70950974 40.85419484 -14.7226335 36.62470317 -14.74658966 32.3942337 C-14.76105094 29.13937241 -14.75644026 25.88475138 -14.74607849 22.62988281 C-14.74341209 21.07017903 -14.74667797 19.51045337 -14.7559967 17.95077515 C-14.76616845 15.76973282 -14.75065584 13.59032898 -14.72839355 11.40940857 C-14.72521118 10.16904846 -14.72202881 8.92868835 -14.71875 7.65074158 C-14.21081543 4.50120544 -14.21081543 4.50120544 -12.81724548 2.33568478 C-8.75983112 -0.52003843 -4.84765312 -0.04724232 0 0 Z " fill="#31C087" transform="translate(288.2108154296875,387.49879455566406)"/>
<path d="M0 0 C1.23621809 0.54729526 2.4732256 1.0928102 3.7109375 1.63671875 C4.34483398 1.91563965 4.97873047 2.19456055 5.63183594 2.48193359 C8.7677772 3.83100696 11.94673423 5.06730853 15.125 6.3125 C23.44802357 9.59556669 31.57797358 13.27259642 39.5625 17.3125 C35.54420169 21.84928842 31.0688556 24.77027295 25.5625 27.3125 C24.9025 27.3125 24.2425 27.3125 23.5625 27.3125 C24.47264563 32.34506994 25.48196418 37.2139335 27.125 42.0625 C28.83053564 47.42640958 29.05107412 52.70919767 29.25390625 58.30859375 C29.34473752 61.4915199 29.34473752 61.4915199 31.5625 64.3125 C32.97294156 75.3828262 29.47481857 81.44402214 23.5625 90.3125 C22.66230616 92.06026097 21.76696034 93.8105228 20.875 95.5625 C15.04464345 106.32961573 6.30187328 115.25874767 -5.4375 119.3125 C-14.10991673 120.5310695 -21.46048055 118.0304657 -28.375 112.875 C-31.27796201 110.58642149 -33.00116182 108.73414332 -34.4375 105.3125 C-35.0975 105.3125 -35.7575 105.3125 -36.4375 105.3125 C-37.87741093 103.3176234 -39.16805989 101.34963554 -40.4375 99.25 C-40.97117187 98.40791992 -40.97117187 98.40791992 -41.515625 97.54882812 C-43.33392599 94.5805196 -44.68768848 91.78688994 -45.56640625 88.4375 C-45.85386719 87.40625 -46.14132812 86.375 -46.4375 85.3125 C-47.076875 85.003125 -47.71625 84.69375 -48.375 84.375 C-51.25652122 82.89057998 -51.90014088 80.79172602 -52.90234375 77.8125 C-53.9211444 73.05313929 -54.0094284 68.14046701 -53.4375 63.3125 C-52.4475 62.3225 -52.4475 62.3225 -51.4375 61.3125 C-51.00256818 58.99286365 -50.66063778 56.65520987 -50.375 54.3125 C-49.53014305 47.4977861 -49.53014305 47.4977861 -48.4375 45.3125 C-47.44000773 39.20816779 -46.81221374 32.33026833 -48.4375 26.3125 C-51.95258061 22.61781673 -55.62930008 20.89376813 -60.4375 19.3125 C-59.93579102 17.53320312 -59.93579102 17.53320312 -58.4375 15.3125 C-55.77427908 13.96006124 -53.24101719 12.84346901 -50.46484375 11.78125 C-49.66776505 11.46345581 -48.87068634 11.14566162 -48.04945374 10.8182373 C-45.49622876 9.80331009 -42.9360615 8.80746553 -40.375 7.8125 C-37.84069225 6.81346994 -35.30794017 5.81058678 -32.77552795 4.8067627 C-31.20084332 4.18416914 -29.62478619 3.56503093 -28.04710388 2.95007324 C-23.41801814 1.13853577 -18.8949075 -0.81587743 -14.40188599 -2.94465637 C-9.35822094 -4.85194672 -4.60104342 -2.0647792 0 0 Z " fill="#FBFDFC" transform="translate(417.4375,77.6875)"/>
<path d="M0 0 C0.24363281 0.60585937 0.48726563 1.21171875 0.73828125 1.8359375 C2.25216017 4.43249762 3.55386772 5.21979173 6.1875 6.625 C6.92355469 7.02976563 7.65960938 7.43453125 8.41796875 7.8515625 C20.51720561 13.23306876 37.41022253 13.35356619 49.75 8.6875 C53.14394381 7.14353376 56.18805814 5.46361573 59 3 C59.33 2.01 59.66 1.02 60 0 C89.69074635 1.10530378 89.69074635 1.10530378 100.625 12.5625 C106.76630622 20.01076612 110.42217416 28.53304495 112 38 C113.02480469 37.97679687 114.04960937 37.95359375 115.10546875 37.9296875 C116.46613851 37.91091964 117.8268162 37.89272053 119.1875 37.875 C119.86103516 37.85824219 120.53457031 37.84148437 121.22851562 37.82421875 C125.28404161 37.78465264 128.3852635 38.12273353 132 40 C135.05894435 43.05894435 135.57470837 45.76097566 136 50 C135.63727566 52.64828431 135.1978318 55.14174868 134.61645508 57.73925781 C134.37759583 58.86763062 134.37759583 58.86763062 134.13391113 60.01879883 C133.60612442 62.49924948 133.06294885 64.97605605 132.51953125 67.453125 C132.14560832 69.19484819 131.7726334 70.93677514 131.40055847 72.67889404 C130.4171258 77.27063941 129.42054044 81.8594342 128.42126465 86.44775391 C127.42047372 91.05456293 126.43258576 95.66413421 125.44335938 100.2734375 C121.74868585 117.46249821 121.74868585 117.46249821 120.51543903 123.03572464 C119.63500992 127.01950715 118.79798805 131.00533299 118.02816772 135.01208496 C117.8645383 135.82827679 117.70090887 136.64446861 117.53232098 137.48539352 C117.22304137 139.03067113 116.92811265 140.57892224 116.65070057 142.13023758 C115.62036942 147.15812383 113.94678115 149.75160815 110 153 C107.23298221 154.38350889 104.98203607 154.14194907 101.88423157 154.16062927 C99.92636971 154.17569771 99.92636971 154.17569771 97.92895508 154.19107056 C96.47387753 154.19710097 95.01879937 154.20298594 93.5637207 154.20874023 C92.03785485 154.2182766 90.51199118 154.22816766 88.98612976 154.23838806 C83.96603978 154.26980212 78.94593309 154.29004493 73.92578125 154.30859375 C73.0718528 154.31189107 72.21792434 154.31518839 71.33811927 154.31858563 C63.28502791 154.34937072 55.23193285 154.37607984 47.17879963 154.39300442 C36.87698235 154.41490803 26.57568651 154.45686712 16.27407771 154.52644199 C9.03152798 154.57369541 1.78911885 154.59793986 -5.4535802 154.6052013 C-9.77945724 154.61015616 -14.10474691 154.62522005 -18.43045616 154.6649456 C-22.50263534 154.70184893 -26.57389264 154.71021008 -30.64620781 154.69693947 C-32.13814738 154.69699336 -33.63012817 154.70726673 -35.12191391 154.7286911 C-47.78406512 154.90076837 -47.78406512 154.90076837 -52.35861206 151.1546936 C-55.18149258 148.2421984 -56.22176944 145.46721427 -56.99609375 141.46484375 C-57.24423828 140.24345703 -57.49238281 139.02207031 -57.74804688 137.76367188 C-58.08932617 135.8697168 -58.08932617 135.8697168 -58.4375 133.9375 C-58.69208984 132.67099609 -58.94667969 131.40449219 -59.20898438 130.09960938 C-61.16283593 120.13022662 -61.16283593 120.13022662 -61 115 C-58.81913019 118.27130472 -58.38064614 120.40553889 -57.66796875 124.2421875 C-57.42626953 125.47324219 -57.18457031 126.70429688 -56.93554688 127.97265625 C-56.43870523 130.56453513 -55.95164511 133.15830908 -55.47460938 135.75390625 C-55.22904297 136.98753906 -54.98347656 138.22117187 -54.73046875 139.4921875 C-54.51801514 140.61995605 -54.30556152 141.74772461 -54.08666992 142.90966797 C-52.73257661 146.76051343 -51.1373967 148.40440623 -48 151 C-44.93242823 151.73948081 -44.93242823 151.73948081 -41.54797363 151.62145996 C-39.59221153 151.63827316 -39.59221153 151.63827316 -37.59693909 151.65542603 C-36.15902264 151.64251591 -34.72111065 151.62910182 -33.28320312 151.61523438 C-31.76349773 151.61873667 -30.243796 151.62439649 -28.72410583 151.63204956 C-24.60205304 151.64629186 -20.48066778 151.62924193 -16.35867882 151.60576439 C-12.04352448 151.58564979 -7.7283977 151.59153526 -3.41320801 151.59387207 C3.83320111 151.5938185 11.07934943 151.57406558 18.32568359 151.54199219 C26.70148775 151.50509961 35.07695027 151.4963167 43.45282507 151.5032897 C51.51262872 151.50959666 59.57231531 151.49883685 67.63209534 151.47932434 C71.06101653 151.47115315 74.48987787 151.46844028 77.91880798 151.47001648 C81.95724351 151.47089594 85.99535478 151.45666297 90.03370476 151.43078995 C91.51514552 151.42363262 92.9966208 151.42154245 94.47807503 151.42490768 C96.50139668 151.42862687 98.52472521 151.41202133 100.54797363 151.39440918 C101.67989388 151.39068047 102.81181412 151.38695175 103.97803497 151.38311005 C107.37993701 150.95183343 109.26944986 150.04510328 112 148 C113.17359259 145.65938825 113.17359259 145.65938825 113.703125 142.875 C113.95658691 141.79742432 114.21004883 140.71984863 114.47119141 139.60961914 C114.72819824 138.41844482 114.98520508 137.22727051 115.25 136 C115.67998291 134.11945923 115.67998291 134.11945923 116.11865234 132.20092773 C117.11646632 127.80851889 118.0621479 123.40555081 119 119 C119.18042847 118.15318665 119.36085693 117.30637329 119.54675293 116.43389893 C121.31676928 108.10893857 123.06727713 99.77998092 124.78393555 91.44384766 C126.9223691 81.06477133 129.08794762 70.70374898 131.68017578 60.42602539 C133.59516997 52.73884821 133.59516997 52.73884821 133 45 C130.13448051 42.05003027 128.46769322 41.06419951 124.35334015 40.49942875 C122.91218049 40.47881476 121.47060488 40.48010753 120.02941895 40.49879456 C119.23238194 40.49326016 118.43534493 40.48772576 117.61415529 40.48202366 C114.94622804 40.46842181 112.27923706 40.48338347 109.61132812 40.49829102 C107.69754133 40.49450766 105.78375727 40.48900749 103.86997986 40.48191833 C98.67370865 40.46794858 93.477768 40.47914426 88.28151512 40.49562955 C82.84526683 40.50947279 77.40903787 40.5030208 71.97277832 40.49949646 C62.84328887 40.49679377 53.71393084 40.51027507 44.58447266 40.53344727 C34.02742995 40.56005733 23.47060702 40.56180429 12.91354227 40.5500589 C2.76072787 40.53928212 -7.39200698 40.54546743 -17.54481506 40.55961418 C-21.86688618 40.56537483 -26.1888991 40.56529066 -30.51097107 40.56054878 C-35.59995861 40.55577875 -40.6887053 40.56588189 -45.77764702 40.58750343 C-47.64610927 40.5930711 -49.51459466 40.59353679 -51.38305855 40.58855057 C-53.9321132 40.58260087 -56.48043072 40.59509656 -59.02941895 40.61231995 C-59.77017906 40.6063099 -60.51093917 40.60029986 -61.27414656 40.59410769 C-66.09745858 40.6534379 -69.52846896 41.52846896 -73 45 C-73.23192865 46.51469448 -73.41215238 48.03754562 -73.5625 49.5625 C-73.64628906 50.38878906 -73.73007812 51.21507812 -73.81640625 52.06640625 C-73.87699219 52.70449219 -73.93757813 53.34257812 -74 54 C-74.33 54 -74.66 54 -75 54 C-76.33526012 46.83815029 -76.33526012 46.83815029 -74.875 43.1875 C-72.68211734 40.6291369 -71.05730729 39.44841476 -68 38 C-65.14327264 37.79015225 -62.52798778 37.71350177 -59.6875 37.8125 C-58.57665039 37.83280273 -58.57665039 37.83280273 -57.44335938 37.85351562 C-55.62858925 37.88864021 -53.81419712 37.94244028 -52 38 C-51.85304688 37.33355469 -51.70609375 36.66710937 -51.5546875 35.98046875 C-48.79348814 24.63416102 -43.55769925 13.52727259 -33.90625 6.46875 C-23.84059568 0.37264949 -11.51299569 0 0 0 Z " fill="#FDFEFE" transform="translate(377,197)"/>
<path d="M0 0 C2.9153303 0.66305346 5.67719659 0.62403811 8.6640625 0.6171875 C9.788125 0.61976563 10.9121875 0.62234375 12.0703125 0.625 C14.66066699 0.51379791 16.69737625 0.19618728 19.1640625 -0.5078125 C25.44828599 -1.12391284 29.69077511 0.71210502 35.1640625 3.4921875 C35.1640625 2.5021875 35.1640625 1.5121875 35.1640625 0.4921875 C35.8240625 0.4921875 36.4840625 0.4921875 37.1640625 0.4921875 C37.97904812 2.0950928 38.79096177 3.69956028 39.6015625 5.3046875 C40.05402344 6.19800781 40.50648438 7.09132812 40.97265625 8.01171875 C42.1640625 10.4921875 42.1640625 10.4921875 43.1640625 13.4921875 C44.1540625 14.1521875 45.1440625 14.8121875 46.1640625 15.4921875 C46.99073648 20.07131298 46.64606391 24.34456511 44.8515625 28.6171875 C44.2946875 29.2359375 43.7378125 29.8546875 43.1640625 30.4921875 C42.1740625 30.4921875 41.1840625 30.4921875 40.1640625 30.4921875 C39.8134375 31.7503125 39.4628125 33.0084375 39.1015625 34.3046875 C35.58838825 44.76174137 29.42968241 52.80652873 19.9765625 58.3671875 C13.87509376 60.1676209 7.6905977 60.95144344 1.671875 58.4609375 C-8.21364621 52.30386546 -14.46109485 43.11443803 -18.8359375 32.4921875 C-18.8359375 31.8321875 -18.8359375 31.1721875 -18.8359375 30.4921875 C-19.7640625 30.399375 -19.7640625 30.399375 -20.7109375 30.3046875 C-22.8359375 29.4921875 -22.8359375 29.4921875 -24.0859375 27.4921875 C-25.09488831 23.45638424 -24.99817171 19.62915997 -24.8359375 15.4921875 C-23.5159375 15.1621875 -22.1959375 14.8321875 -20.8359375 14.4921875 C-20.7534375 13.6259375 -20.6709375 12.7596875 -20.5859375 11.8671875 C-19.44618271 6.73829094 -17.44092924 3.58650005 -13.0859375 0.6171875 C-8.69742303 -0.90191366 -4.57145741 -1.26444567 0 0 Z " fill="#38C28B" transform="translate(395.8359375,129.5078125)"/>
<path d="M0 0 C4.47894321 -0.11712011 8.95748714 -0.1875608 13.4375 -0.25 C14.69755859 -0.28351563 15.95761719 -0.31703125 17.25585938 -0.3515625 C25.92955656 -0.44214942 32.44204202 0.3227322 39.3046875 5.859375 C46.73528113 14.80566186 47.98848497 22.34701519 47 34 C45.65511647 40.7486498 40.21457752 46.2916034 35.08984375 50.609375 C30.64028764 53.57020112 26.91464772 54.24563647 21.60546875 54.1953125 C20.52160889 54.19031738 19.43774902 54.18532227 18.32104492 54.18017578 C16.9569751 54.16196777 15.59290527 54.14375977 14.1875 54.125 C9.835625 54.08375 5.48375 54.0425 1 54 C1 37.83 1 21.66 1 5 C9.58 5 18.16 5 27 5 C27 4.34 27 3.68 27 3 C18.09 3 9.18 3 0 3 C0 2.01 0 1.02 0 0 Z " fill="#3BC38D" transform="translate(429,401)"/>
<path d="M0 0 C0.9348745 -0.00467997 1.869749 -0.00935994 2.83295304 -0.01418173 C5.97911495 -0.026189 9.12484587 -0.01665204 12.27101135 -0.00723267 C14.52109533 -0.01129584 16.77117731 -0.01663629 19.02125549 -0.02316284 C25.1431015 -0.03687317 31.26479633 -0.03152223 37.38664508 -0.02202559 C43.78430775 -0.01444729 50.1819572 -0.02146958 56.57962036 -0.02618408 C68.01489949 -0.03199765 79.45009466 -0.02265477 90.88535959 -0.00740607 C101.25564359 0.00599439 111.62582684 0.00367236 121.99610901 -0.01016235 C134.03393907 -0.02621414 146.071693 -0.03219419 158.10953766 -0.02332556 C164.48349525 -0.01864225 170.85738343 -0.01804219 177.23133659 -0.02793503 C183.22394358 -0.03658566 189.21635989 -0.0306175 195.20894623 -0.01325226 C197.41163122 -0.00927707 199.61433219 -0.01043901 201.81701088 -0.01704025 C204.81751609 -0.02520505 207.81740541 -0.01499528 210.81787109 0 C211.69520053 -0.00669217 212.57252996 -0.01338433 213.47644514 -0.02027929 C214.28025682 -0.01245605 215.08406851 -0.0046328 215.91223812 0.00342751 C216.60474067 0.00391456 217.29724321 0.00440162 218.01073068 0.00490344 C220.71407465 0.52312102 222.0399949 1.42703669 223.97242737 3.38095093 C224.47382402 5.7110247 224.47382402 5.7110247 224.47579193 8.51783657 C224.48622292 9.58726197 224.49665391 10.65668736 224.50740099 11.75851959 C224.4984781 12.93768277 224.48955522 14.11684594 224.48036194 15.33174133 C224.4866019 16.58104937 224.49284186 17.8303574 224.49927092 19.11752325 C224.516019 22.59204957 224.50769344 26.06613826 224.49532604 29.54066646 C224.48629996 33.28513215 224.50023314 37.02952099 224.51124573 40.77397156 C224.52906231 48.11230736 224.52517692 55.45047982 224.51359516 62.78882211 C224.50457273 68.75173596 224.50333167 74.71460394 224.50769043 80.67752266 C224.50830336 81.52522184 224.50891629 82.37292102 224.5095478 83.24630805 C224.51082667 84.96824253 224.51212352 86.69017701 224.51343817 88.41211147 C224.52485333 104.57132365 224.51171596 120.73044517 224.4902367 136.88964248 C224.47236809 150.76203488 224.47546604 164.63429338 224.49391174 178.50668335 C224.51530751 194.60531923 224.5237512 210.70387556 224.51146269 226.80252367 C224.51018846 228.51853691 224.50893098 230.23455017 224.50769043 231.95056343 C224.50676478 233.21711833 224.50676478 233.21711833 224.50582042 234.50926019 C224.50236339 240.46611754 224.50820352 246.42292454 224.51760864 252.37977409 C224.5288158 259.63772743 224.52581587 266.89550768 224.50448567 274.15344112 C224.49395731 277.85826692 224.48988341 281.56280392 224.50308228 285.26762772 C224.51715987 289.27972997 224.50037621 293.29110011 224.48036194 297.30317688 C224.48928483 298.48010933 224.49820771 299.65704179 224.50740099 300.86963886 C224.49175451 302.47768858 224.49175451 302.47768858 224.47579193 304.11822414 C224.47514252 305.04463441 224.47449311 305.97104468 224.47382402 306.92552799 C223.80788206 310.18675669 222.58837753 311.37579249 219.97242737 313.38095093 C218.01829338 313.88234758 218.01829338 313.88234758 215.9306488 313.88431549 C214.73108142 313.89996197 214.73108142 313.89996197 213.50728035 313.91592455 C212.63452398 313.90700166 211.76176762 313.89807878 210.86256409 313.8888855 C209.46509603 313.89824544 209.46509603 313.89824544 208.03939629 313.90779448 C204.91004688 313.92378012 201.78147039 313.91109825 198.65211487 313.89852905 C196.41173344 313.90394768 194.17135558 313.91106888 191.9309845 313.91976929 C185.84014942 313.93803624 179.74958474 313.93092106 173.65874481 313.91825294 C167.29178119 313.9081428 160.92484109 313.9175131 154.55787659 313.92379761 C143.17922199 313.93154657 131.80070499 313.91909718 120.42207789 313.89876026 C110.10351351 313.88088899 99.78512913 313.88399303 89.46656799 313.9024353 C77.48622205 313.92383762 65.50598549 313.93181147 53.52561378 313.91998625 C47.18295087 313.91374236 40.84041197 313.91294035 34.49775696 313.9261322 C28.53544999 313.93766623 22.57348375 313.92970947 16.61121368 313.90655518 C14.41981828 313.90125503 12.22839433 313.90280404 10.03701019 313.91160583 C7.05171335 313.92249312 4.06751686 313.90887991 1.08229065 313.8888855 C-0.2268439 313.90226983 -0.2268439 313.90226983 -1.56242561 313.91592455 C-2.3621372 313.90549356 -3.16184879 313.89506257 -3.98579407 313.88431549 C-4.67471678 313.88366608 -5.36363949 313.88301667 -6.07343864 313.88234758 C-8.99845191 313.13184026 -10.19953572 311.74217095 -12.02757263 309.38095093 C-12.52781862 306.92552799 -12.52781862 306.92552799 -12.52814388 304.11822414 C-12.53795817 303.046191 -12.54777246 301.97415786 -12.55788416 300.86963886 C-12.54827915 299.69270641 -12.53867414 298.51577395 -12.52877808 297.30317688 C-12.53431247 296.05230886 -12.53984687 294.80144083 -12.54554898 293.51266772 C-12.56033249 290.03845995 -12.55010568 286.56470408 -12.53581226 283.09051073 C-12.52472272 279.34472614 -12.53663829 275.59900601 -12.5456543 271.85322571 C-12.5596022 264.51468641 -12.55201941 257.17631894 -12.53697871 249.8377878 C-12.52013802 241.29669391 -12.52332638 232.75564305 -12.52707279 224.21453769 C-12.53295412 208.97855146 -12.51876865 193.74264782 -12.49412537 178.50668335 C-12.47019957 163.71270655 -12.46312239 148.91884009 -12.47361755 134.12484741 C-12.48501879 118.02475416 -12.486967 101.92471197 -12.47251946 85.82461935 C-12.47099357 84.10892046 -12.46947322 82.39322156 -12.46795845 80.67752266 C-12.46720064 79.833307 -12.46644282 78.98909135 -12.46566204 78.1192934 C-12.46091339 72.16146539 -12.46277473 66.20366012 -12.46702385 60.24583244 C-12.4719431 52.9889942 -12.46599928 45.73226043 -12.44612955 38.47544616 C-12.43623683 34.77078401 -12.43117364 31.06628114 -12.43902206 27.36161041 C-12.44734397 23.35150214 -12.4325394 19.34182082 -12.41525269 15.33174133 C-12.42126273 14.15257816 -12.42727278 12.97341498 -12.43346494 11.75851959 C-12.425025 10.68909419 -12.41658506 9.6196688 -12.40788937 8.51783657 C-12.40686024 7.59158865 -12.40583111 6.66534074 -12.40477079 5.7110247 C-12.02757263 3.38095093 -12.02757263 3.38095093 -10.74969959 1.58349079 C-7.61347039 -0.6064991 -3.6952704 -0.0281156 0 0 Z M-10.02757263 4.38095093 C-10.33097447 6.67739261 -10.33097447 6.67739261 -10.27925491 9.384758 C-10.28447041 10.44994235 -10.2896859 11.5151267 -10.29505944 12.61258936 C-10.290598 13.79213867 -10.28613656 14.97168797 -10.28153992 16.1869812 C-10.2846599 17.43276239 -10.28777988 18.67854358 -10.29099441 19.96207571 C-10.29937889 23.43121208 -10.29520068 26.90023907 -10.28902197 30.36937594 C-10.28451333 34.10629965 -10.29147331 37.84320399 -10.29698181 41.5801239 C-10.30589451 48.90518627 -10.30394548 56.23020775 -10.29815653 63.55527174 C-10.2936474 69.50629807 -10.29302388 75.45731291 -10.29520416 81.40834045 C-10.29566386 82.67679558 -10.29566386 82.67679558 -10.29613285 83.97087607 C-10.29677227 85.68854654 -10.2974207 87.40621701 -10.29807803 89.12388748 C-10.30378682 105.24628751 -10.29721484 121.36866484 -10.2864773 137.49106115 C-10.27754129 151.33734438 -10.27909318 165.18359408 -10.28831482 179.02987671 C-10.29900777 195.09294452 -10.30323745 211.15599241 -10.29709029 227.21906328 C-10.29645317 228.93056265 -10.29582442 230.64206203 -10.29520416 232.3535614 C-10.29489561 233.19574363 -10.29458706 234.03792587 -10.29426916 234.90562877 C-10.29253929 240.85237898 -10.2954636 246.7991166 -10.30016327 252.74586487 C-10.30576129 259.98884633 -10.30427848 267.23178442 -10.29360178 274.47476089 C-10.28833046 278.1731835 -10.286313 281.87153369 -10.29290009 285.56995583 C-10.29991978 289.57167436 -10.29156196 293.5732086 -10.28153992 297.57492065 C-10.28600136 298.75446996 -10.2904628 299.93401927 -10.29505944 301.1493125 C-10.28984395 302.21449685 -10.28462845 303.2796812 -10.27925491 304.37714386 C-10.27893021 305.30181788 -10.2786055 306.2264919 -10.27827096 307.17918634 C-10.23539901 309.58817198 -10.23539901 309.58817198 -8.02757263 311.38095093 C-5.03623415 311.57900763 -2.13734266 311.650091 0.85523987 311.63491821 C2.25226135 311.63959818 2.25226135 311.63959818 3.67750549 311.6443727 C6.81754267 311.65238926 9.95738854 311.64601485 13.09742737 311.63973999 C15.34075535 311.64244823 17.58408244 311.64600821 19.82740784 311.65036011 C25.93468897 311.65950626 32.04190281 311.6559307 38.14918518 311.64960194 C44.52776781 311.64455343 50.90634452 311.64923017 57.28492737 311.65237427 C68.68555891 311.65625091 80.08615304 311.65001891 91.48677826 311.63985559 C101.83096819 311.63091966 112.17511324 311.63247158 122.51930237 311.64169312 C134.52156981 311.65238772 146.52380333 311.65638468 158.52607727 311.65046859 C164.88320494 311.64734364 171.24030166 311.6469539 177.59742737 311.65354156 C183.57273958 311.65930057 189.54796668 311.65534472 195.52326965 311.64375305 C197.72195799 311.6410987 199.92065344 311.64188466 202.11933899 311.64627838 C205.1095291 311.65170482 208.09944261 311.64493518 211.08961487 311.63491821 C211.96956116 311.63937966 212.84950745 311.6438411 213.75611877 311.64843774 C218.3423842 311.8292977 218.3423842 311.8292977 221.97242737 309.38095093 C222.2758292 307.08450925 222.2758292 307.08450925 222.22410965 304.37714386 C222.23193289 302.77936733 222.23193289 302.77936733 222.23991418 301.1493125 C222.23322201 299.37998853 222.23322201 299.37998853 222.22639465 297.57492065 C222.22951463 296.32913947 222.23263462 295.08335828 222.23584914 293.79982615 C222.24423362 290.33068977 222.24005542 286.86166279 222.23387671 283.39252591 C222.22936807 279.65560221 222.23632805 275.91869786 222.24183655 272.18177795 C222.25074925 264.85671559 222.24880021 257.53169411 222.24301127 250.20663011 C222.23850214 244.25560378 222.23787862 238.30458895 222.2400589 232.3535614 C222.2405186 231.08510627 222.2405186 231.08510627 222.24098758 229.79102579 C222.24162701 228.07335531 222.24227543 226.35568484 222.24293277 224.63801438 C222.24864156 208.51561434 222.24206957 192.39323702 222.23133203 176.2708407 C222.22239602 162.42455747 222.22394791 148.57830777 222.23316956 134.73202515 C222.24386251 118.66895733 222.24809218 102.60590945 222.24194503 86.54283857 C222.2413079 84.8313392 222.24067916 83.11983983 222.2400589 81.40834045 C222.23975035 80.56615822 222.2394418 79.72397599 222.2391239 78.85627308 C222.23739402 72.90952287 222.24031833 66.96278525 222.24501801 61.01603699 C222.25061603 53.77305552 222.24913321 46.53011743 222.23845652 39.28714097 C222.2331852 35.58871836 222.23116774 31.89036817 222.23775482 28.19194603 C222.24477452 24.1902275 222.23641669 20.18869326 222.22639465 16.1869812 C222.2308561 15.00743189 222.23531754 13.82788259 222.23991418 12.61258936 C222.23469868 11.54740501 222.22948319 10.48222066 222.22410965 9.384758 C222.22378495 8.46008398 222.22346024 7.53540996 222.2231257 6.58271551 C222.18025375 4.17372988 222.18025375 4.17372988 219.97242737 2.38095093 C216.98108889 2.18289423 214.0821974 2.11181086 211.08961487 2.12698364 C210.15826721 2.12386366 209.22691956 2.12074368 208.26734924 2.11752915 C205.12731207 2.1095126 201.98746619 2.115887 198.84742737 2.12216187 C196.60409939 2.11945363 194.36077229 2.11589364 192.1174469 2.11154175 C186.01016576 2.1023956 179.90295192 2.10597116 173.79566956 2.11229992 C167.41708692 2.11734842 161.03851022 2.11267168 154.65992737 2.10952759 C143.25929583 2.10565094 131.8587017 2.11188294 120.45807648 2.12204626 C110.11388654 2.13098219 99.76974149 2.12943028 89.42555237 2.12020874 C77.42328493 2.10951414 65.42105141 2.10551718 53.41877747 2.11143327 C47.0616498 2.11455822 40.70455307 2.11494796 34.34742737 2.10836029 C28.37211515 2.10260128 22.39688806 2.10655714 16.42158508 2.1181488 C14.22289675 2.12080315 12.0242013 2.12001719 9.82551575 2.11562347 C6.83532564 2.11019704 3.84541212 2.11696667 0.85523987 2.12698364 C-0.02470642 2.1225222 -0.90465271 2.11806076 -1.81126404 2.11346412 C-6.39752946 1.93260416 -6.39752946 1.93260416 -10.02757263 4.38095093 Z " fill="#607CFE" transform="translate(301.02757263183594,60.619049072265625)"/>
<path d="M0 0 C0.70196316 -0.00382555 1.40392632 -0.00765109 2.12716109 -0.01159257 C4.49098217 -0.02195221 6.85456169 -0.01792489 9.21839905 -0.01396179 C10.90838853 -0.01830664 12.59837604 -0.02348902 14.2883606 -0.02944946 C18.88749255 -0.04287532 23.48654252 -0.04341415 28.08569026 -0.04088616 C31.9203761 -0.03981886 35.75504519 -0.04469365 39.58972746 -0.04949158 C48.63393274 -0.06059922 57.67809649 -0.06101715 66.7223053 -0.05497742 C76.06315033 -0.04893565 85.4038448 -0.06125092 94.74466413 -0.08254749 C102.75488592 -0.10014113 110.76505968 -0.10616838 118.77530009 -0.10290974 C123.56361993 -0.10109313 128.35183239 -0.10377053 133.14013481 -0.11762428 C137.64220579 -0.13016169 142.14404144 -0.12829751 146.64610863 -0.11521339 C148.30094735 -0.11283909 149.95580242 -0.11561268 151.61062241 -0.12383652 C153.86495898 -0.13423412 156.11849567 -0.12626062 158.37280273 -0.11352539 C160.26733893 -0.113777 160.26733893 -0.113777 162.20014858 -0.1140337 C165.24989319 0.26069641 165.24989319 0.26069641 167.19143009 1.62002277 C168.24989319 3.26069641 168.24989319 3.26069641 168.06239319 5.88569641 C167.24989319 8.26069641 167.24989319 8.26069641 165.24989319 9.26069641 C163.00164073 9.36175406 160.75030269 9.39583633 158.49978638 9.40113831 C157.44684164 9.40559499 157.44684164 9.40559499 156.37262529 9.41014171 C154.00886739 9.41884752 151.64516002 9.42033852 149.28138733 9.42182922 C147.59139904 9.426456 145.9014118 9.43148047 144.21142578 9.43687439 C139.6123163 9.45001237 135.01322143 9.45644586 130.41409612 9.46088505 C127.54327843 9.46381302 124.67246476 9.46791726 121.80164909 9.47238922 C112.82672012 9.48606672 103.85180031 9.49573261 94.87686163 9.49959111 C84.50289132 9.50407515 74.12905255 9.52163799 63.75512224 9.55059171 C55.74490749 9.57217544 47.73472983 9.58229359 39.72448629 9.58363223 C34.93615668 9.58468248 30.14795067 9.59063686 25.35965157 9.60845184 C20.85759426 9.62487586 16.35575425 9.6271158 11.85367775 9.61831284 C10.19883392 9.61753945 8.54397868 9.62192459 6.88916397 9.63177109 C4.63484168 9.64440106 2.38129947 9.63866351 0.12698364 9.62818909 C-1.13604049 9.62965565 -2.39906462 9.63112221 -3.70036221 9.63263321 C-6.75010681 9.26069641 -6.75010681 9.26069641 -8.69164371 7.86663437 C-9.75010681 6.26069641 -9.75010681 6.26069641 -9.56260681 4.19819641 C-7.55654309 -0.58549401 -4.7123973 0.00766163 0 0 Z " fill="#F5FCF9" transform="translate(327.75010681152344,352.7393035888672)"/>
<path d="M0 0 C1.05006839 -0.0055344 2.10013679 -0.01106879 3.18202543 -0.0167709 C6.71212416 -0.03041957 10.24152105 -0.01538474 13.77160645 -0.00050354 C16.29769695 -0.00428516 18.82378539 -0.00978391 21.34986877 -0.01687622 C27.50565472 -0.0294142 33.66117898 -0.02324511 39.81695187 -0.00820064 C46.98345734 0.00864822 54.14991159 0.00545062 61.31643075 0.00170528 C74.10214926 -0.00417517 86.88776934 0.0100055 99.67346191 0.03465271 C112.08398122 0.05857405 124.494369 0.06565722 136.90490723 0.05516052 C150.4146395 0.04375463 163.92431092 0.04181717 177.43404245 0.05625862 C178.87424627 0.05778448 180.3144501 0.05930484 181.75465393 0.06081963 C182.46328747 0.06157744 183.17192101 0.06233525 183.90202829 0.06311603 C188.89908579 0.06786141 193.89611613 0.06600563 198.89317322 0.06175423 C205.61711227 0.05631689 212.34084178 0.06705585 219.06475639 0.08870888 C221.53673626 0.0942869 224.00873365 0.0947328 226.4807148 0.08975601 C229.84680427 0.08382763 233.21233052 0.09626182 236.57836914 0.11352539 C237.56396301 0.10751535 238.54955688 0.1015053 239.56501722 0.09531313 C240.91611232 0.10797304 240.91611232 0.10797304 242.29450226 0.12088871 C243.07152009 0.12191784 243.84853791 0.12294697 244.64910173 0.12400728 C247.39780666 0.60847752 248.77994372 1.58709469 250.78918457 3.50120544 C251.29711914 6.56845093 251.29711914 6.56845093 251.3067627 10.38768005 C251.31727661 11.43208504 251.31727661 11.43208504 251.32800293 12.49758911 C251.34561277 14.79998118 251.33394964 17.10114455 251.32043457 19.40354919 C251.32312897 21.00393917 251.32701095 22.60432755 251.33203125 24.20471191 C251.33793055 27.55980506 251.32935102 30.91447234 251.31066895 34.26951599 C251.28789703 38.56842741 251.30098778 42.86633899 251.3249588 47.16521358 C251.33942113 50.47068803 251.33480859 53.77592593 251.32444763 57.08140755 C251.32178057 58.66623109 251.32504944 60.25107616 251.33436584 61.83587456 C251.3445372 64.05293914 251.32902442 66.26839166 251.3067627 68.4853363 C251.30358032 69.74647751 251.30039795 71.00761871 251.29711914 72.30697632 C250.78918457 75.50120544 250.78918457 75.50120544 249.39561462 77.66909885 C245.33814713 80.52116577 241.42451142 80.05301364 236.57836914 80.00914001 C235.52830075 80.01537998 234.47823236 80.02161994 233.39634371 80.02804899 C229.86625716 80.0440453 226.33685476 80.03134831 222.8067627 80.01878357 C220.28067114 80.02420171 217.75458275 80.03132263 215.22850037 80.0400238 C209.07272225 80.05639746 202.91719885 80.05396279 196.76141727 80.04237324 C191.75914653 80.03334479 186.75693048 80.03211235 181.75465393 80.03646851 C181.04308294 80.03708144 180.33151196 80.03769437 179.59837821 80.03832588 C178.15289826 80.03960476 176.70741832 80.04090161 175.26193839 80.04221624 C161.70321257 80.05362624 148.14459487 80.0405018 134.58588678 80.01901478 C122.94835767 80.00114338 111.31098814 80.00424737 99.67346191 80.02268982 C86.16372343 80.04408917 72.65407975 80.05252756 59.14432669 80.04024076 C57.70412288 80.03896655 56.26391905 80.03770907 54.82371521 80.03646851 C54.11508167 80.0358514 53.40644813 80.0352343 52.67634085 80.0345985 C47.67926942 80.03114278 42.68225805 80.0369787 37.68519592 80.04638672 C30.96121403 80.05876758 24.23758065 80.04997062 17.51361275 80.02680969 C15.04163173 80.02150761 12.56962539 80.02306181 10.09765434 80.03186035 C6.73142282 80.04273978 3.36616871 80.02914325 0 80.00914001 C-0.98559387 80.0180629 -1.97118773 80.02698579 -2.98664808 80.03617907 C-9.55901367 79.96006717 -9.55901367 79.96006717 -12.81724548 77.66630554 C-14.80448043 74.57886627 -14.71901283 72.24922945 -14.72839355 68.59300232 C-14.73540283 67.90633987 -14.74241211 67.21967743 -14.74963379 66.51220703 C-14.76720555 64.24770894 -14.75559538 61.98446572 -14.74206543 59.71995544 C-14.74476062 58.14341492 -14.74864326 56.56687602 -14.75366211 54.99034119 C-14.75955599 51.68830011 -14.75099821 48.38669222 -14.7322998 45.08470154 C-14.70950974 40.85419484 -14.7226335 36.62470317 -14.74658966 32.3942337 C-14.76105094 29.13937241 -14.75644026 25.88475138 -14.74607849 22.62988281 C-14.74341209 21.07017903 -14.74667797 19.51045337 -14.7559967 17.95077515 C-14.76616845 15.76973282 -14.75065584 13.59032898 -14.72839355 11.40940857 C-14.72521118 10.16904846 -14.72202881 8.92868835 -14.71875 7.65074158 C-14.21081543 4.50120544 -14.21081543 4.50120544 -12.81724548 2.33568478 C-8.75983112 -0.52003843 -4.84765312 -0.04724232 0 0 Z M-12.21081543 4.50120544 C-12.5188531 7.56413737 -12.5188531 7.56413737 -12.46960449 11.21409607 C-12.47310913 11.90367905 -12.47661377 12.59326202 -12.48022461 13.30374146 C-12.48904372 15.5884145 -12.4831923 17.87277913 -12.47644043 20.15745544 C-12.47778703 21.74164388 -12.47972752 23.32583191 -12.48223877 24.91001892 C-12.48519027 28.23228383 -12.48089161 31.55444129 -12.47155762 34.87669373 C-12.46016301 39.14082135 -12.46672235 43.40469723 -12.47870255 47.66881561 C-12.48592048 50.9406983 -12.48363354 54.21252105 -12.47844696 57.48440552 C-12.47711028 59.05692576 -12.47875884 60.62945139 -12.48340607 62.20196533 C-12.48847028 64.39756237 -12.48076293 66.59274848 -12.46960449 68.78831482 C-12.46801331 70.03914856 -12.46642212 71.2899823 -12.46478271 72.57872009 C-12.5157199 75.62512376 -12.5157199 75.62512376 -10.21081543 77.50120544 C-8.24528303 77.80338863 -8.24528303 77.80338863 -5.95664215 77.75288773 C-5.05866079 77.75810322 -4.16067943 77.76331872 -3.23548651 77.76869226 C-2.24270272 77.76423081 -1.24991893 77.75976937 -0.22705078 77.75517273 C0.82271989 77.75829271 1.87249057 77.76141269 2.95407248 77.76462722 C6.49486898 77.77264647 10.03549597 77.7662683 13.57629395 77.75999451 C16.10533245 77.76270262 18.63437016 77.76626254 21.16340637 77.77061462 C27.33343005 77.77881087 33.50339026 77.77757908 39.67341483 77.77178934 C44.68622654 77.76727953 49.69902461 77.76665699 54.71183777 77.76883698 C55.78046689 77.76929667 55.78046689 77.76929667 56.87068447 77.76976566 C58.31777895 77.77040509 59.76487342 77.77105351 61.21196789 77.77171084 C74.79348365 77.77741912 88.37497244 77.77084846 101.95648378 77.76011011 C113.61964365 77.75117414 125.28276371 77.75272605 136.94592285 77.76194763 C150.4775815 77.7726415 164.00921649 77.77686975 177.54087877 77.7707231 C178.98276297 77.77008598 180.42464717 77.76945724 181.86653137 77.76883698 C182.57603631 77.76852842 183.28554125 77.76821987 184.01654634 77.76790197 C189.02553759 77.76617237 194.03451388 77.76909582 199.04350281 77.77379608 C205.78049373 77.77997865 212.51739759 77.77560089 219.25438499 77.76400757 C221.73365847 77.76135274 224.21293824 77.76213998 226.69220924 77.7665329 C230.0633666 77.77195742 233.43427842 77.76519196 236.80541992 77.75517273 C238.29459561 77.76186489 238.29459561 77.76186489 239.81385565 77.76869226 C241.16082769 77.76086901 241.16082769 77.76086901 242.53501129 77.75288773 C243.3138727 77.75256302 244.09273412 77.75223832 244.89519739 77.75190377 C247.03135752 77.66450276 247.03135752 77.66450276 248.78918457 75.50120544 C249.09722224 72.43827352 249.09722224 72.43827352 249.04797363 68.78831482 C249.05147827 68.09873184 249.05498291 67.40914886 249.05859375 66.69866943 C249.06741286 64.41399639 249.06156144 62.12963176 249.05480957 59.84495544 C249.05615617 58.26076701 249.05809666 56.67657898 249.06060791 55.09239197 C249.06355941 51.77012706 249.05926075 48.4479696 249.04992676 45.12571716 C249.03853215 40.86158954 249.04509149 36.59771366 249.05707169 32.33359528 C249.06428962 29.06171259 249.06200268 25.78988984 249.0568161 22.51800537 C249.05547942 20.94548513 249.05712798 19.3729595 249.06177521 17.80044556 C249.06683943 15.60484852 249.05913207 13.40966241 249.04797363 11.21409607 C249.04638245 9.96326233 249.04479126 8.71242859 249.04315186 7.4236908 C249.09408904 4.37728713 249.09408904 4.37728713 246.78918457 2.50120544 C244.82365217 2.19902226 244.82365217 2.19902226 242.53501129 2.24952316 C241.63702993 2.24430767 240.73904857 2.23909217 239.81385565 2.23371863 C238.82107186 2.23818008 237.82828807 2.24264152 236.80541992 2.24723816 C235.75564925 2.24411818 234.70587857 2.2409982 233.62429667 2.23778367 C230.08350016 2.22976442 226.54287318 2.23614259 223.0020752 2.24241638 C220.47303669 2.23970826 217.94399898 2.23614835 215.41496277 2.23179626 C209.24493909 2.22360002 203.07497888 2.22483181 196.90495431 2.23062155 C191.8921426 2.23513136 186.87934453 2.2357539 181.86653137 2.23357391 C181.15411196 2.23326745 180.44169255 2.23296098 179.70768467 2.23264523 C178.26059019 2.2320058 176.81349572 2.23135738 175.36640126 2.23070005 C161.7848855 2.22499177 148.2033967 2.23156243 134.62188536 2.24230078 C122.95872549 2.25123674 111.29560544 2.24968484 99.63244629 2.24046326 C86.10078764 2.22976939 72.56915265 2.22554114 59.03749037 2.23168778 C57.59560617 2.23232491 56.15372197 2.23295365 54.71183777 2.23357391 C54.00233283 2.23388246 53.29282789 2.23419102 52.5618228 2.23450892 C47.55283155 2.23623851 42.54385526 2.23331507 37.53486633 2.22861481 C30.79787541 2.22243224 24.06097156 2.22681 17.32398415 2.23840332 C14.84471067 2.24105815 12.3654309 2.24027091 9.8861599 2.23587799 C6.51500254 2.23045346 3.14409072 2.23721892 -0.22705078 2.24723816 C-1.71622647 2.24054599 -1.71622647 2.24054599 -3.23548651 2.23371863 C-4.13346787 2.23893413 -5.03144923 2.24414962 -5.95664215 2.24952316 C-6.73550356 2.24984787 -7.51436498 2.25017257 -8.31682825 2.25050712 C-10.45298838 2.33790813 -10.45298838 2.33790813 -12.21081543 4.50120544 Z " fill="#607CFE" transform="translate(288.2108154296875,387.49879455566406)"/>
<path d="M0 0 C4.62 0 9.24 0 14 0 C14.0093457 1.10512939 14.01869141 2.21025879 14.02832031 3.34887695 C14.06817981 7.4474322 14.13392637 11.54523358 14.20751953 15.64331055 C14.23575279 17.41730061 14.25695563 19.19141701 14.27099609 20.96557617 C14.29239381 23.51547032 14.33902435 26.06384166 14.390625 28.61328125 C14.39185364 29.40712723 14.39308228 30.20097321 14.39434814 31.01887512 C14.47990147 35.45448995 14.47990147 35.45448995 16.91308594 38.99707031 C19.11689898 40.05617934 20.5644053 40.43274298 23 40.4375 C23.66 40.45683594 24.32 40.47617187 25 40.49609375 C28.04014037 39.74199643 29.0913307 38.47985734 31 36 C31.41782599 33.12305502 31.60476278 30.61293004 31.609375 27.734375 C31.62591125 26.94097717 31.64244751 26.14757935 31.65948486 25.33013916 C31.70795616 22.80334731 31.72933287 20.27715719 31.75 17.75 C31.77816057 16.03382391 31.80808812 14.31767584 31.83984375 12.6015625 C31.91371436 8.40109122 31.96329387 4.2009538 32 0 C34.64 0 37.28 0 40 0 C40.09916726 5.44428237 40.17160909 10.88803448 40.21972656 16.33300781 C40.23979339 18.18368696 40.26705345 20.03430309 40.30175781 21.88476562 C40.35049433 24.55093977 40.37301787 27.21627287 40.390625 29.8828125 C40.41127014 30.70492218 40.43191528 31.52703186 40.45318604 32.37405396 C40.45526009 37.73113214 39.57000753 40.75623706 36 45 C29.68113805 49.36302373 24.57780072 49.5455223 17 49 C12.22048279 47.37837809 9.81066526 45.16394853 7 41 C5.81024205 37.43072615 5.87521845 34.20053028 5.90234375 30.48828125 C5.9037587 29.76005661 5.90517365 29.03183197 5.90663147 28.28153992 C5.91222341 25.95848461 5.92477438 23.63552612 5.9375 21.3125 C5.94251604 19.73632952 5.94707877 18.16015752 5.95117188 16.58398438 C5.9621902 12.72261902 5.97944926 8.86132592 6 5 C6.99 5 7.98 5 9 5 C9.01458252 5.9787207 9.02916504 6.95744141 9.04418945 7.96582031 C9.10225106 11.60404626 9.1794826 15.24165836 9.26245117 18.87939453 C9.29566372 20.45253522 9.32370717 22.02579401 9.34643555 23.59912109 C9.38005028 25.86346672 9.43236624 28.12673365 9.48828125 30.390625 C9.49467117 31.09181458 9.5010611 31.79300415 9.50764465 32.51544189 C9.6323468 36.67581764 10.2351156 38.89347097 13 42 C13 42.66 13 43.32 13 44 C19.45536197 45.32417682 27.07505267 46.48526313 33 43 C37.06070454 38.50421997 37.18306342 34.07976744 37.31640625 28.26953125 C37.33718735 27.51911057 37.35796844 26.76868988 37.37937927 25.99552917 C37.44469926 23.60127816 37.50367792 21.20691861 37.5625 18.8125 C37.60570193 17.18813987 37.64931676 15.56379067 37.69335938 13.93945312 C37.80036263 9.95974629 37.90167937 5.97993042 38 2 C37.01 2 36.02 2 35 2 C35.02094727 3.03406982 35.04189453 4.06813965 35.06347656 5.13354492 C35.13605288 8.98187328 35.18186317 12.83014154 35.21972656 16.67895508 C35.23980207 18.34247013 35.26706876 20.00591496 35.30175781 21.66918945 C35.35045766 24.0647924 35.37300856 26.45945992 35.390625 28.85546875 C35.41127014 29.5952446 35.43191528 30.33502045 35.45318604 31.09721375 C35.45477064 34.77045469 35.1242962 36.8064692 33.12011719 39.92700195 C29.77431391 43.19844549 27.17109693 43.87224397 22.5625 44.375 C18.28521437 43.92475941 16.27692459 42.74347175 13 40 C10.43992967 36.34213863 10.74343741 32.46224967 10.8046875 28.171875 C10.8075174 27.42286926 10.81034729 26.67386353 10.81326294 25.90216064 C10.8244274 23.51794224 10.84952469 21.13410421 10.875 18.75 C10.88503465 17.13021377 10.89415965 15.51042164 10.90234375 13.890625 C10.92435445 9.92693754 10.95885825 5.96353319 11 2 C8.36 2 5.72 2 3 2 C3.0693087 6.69614323 3.15747868 11.39143238 3.26245117 16.08691406 C3.29551798 17.68121798 3.32360559 19.27563383 3.34643555 20.87011719 C3.38032072 23.17430927 3.43264737 25.47749225 3.48828125 27.78125 C3.49786613 28.83487732 3.49786613 28.83487732 3.50764465 29.90979004 C3.66038464 35.15773546 4.97550689 39.15501472 7 44 C7.268125 44.78375 7.53625 45.5675 7.8125 46.375 C9.69328547 48.94870643 11.97047228 49.17979376 15 50 C26.5254774 50.9813795 26.5254774 50.9813795 37 47 C41.84964541 41.00175436 42.15786126 35.99757279 42.31640625 28.515625 C42.33718735 27.70003113 42.35796844 26.88443726 42.37937927 26.04412842 C42.44461297 23.44616895 42.50363768 20.84811087 42.5625 18.25 C42.60571014 16.485667 42.64932522 14.72134387 42.69335938 12.95703125 C42.80026745 8.63812116 42.90160827 4.31911216 43 0 C43.99 0 44.98 0 46 0 C46.12459983 5.22859225 46.21480498 10.45630019 46.2746582 15.68603516 C46.29963627 17.46092809 46.33363126 19.23571993 46.37719727 21.01025391 C46.84635761 40.62667598 46.84635761 40.62667598 41 48 C34.59565364 54.03481514 27.95554423 54.42748004 19.3671875 54.33984375 C13.60396408 53.75817271 8.4016464 51.81391813 4.56640625 47.3203125 C0.73885522 41.01116245 -0.29420662 34.78650638 -0.1953125 27.5390625 C-0.1924826 26.74849457 -0.18965271 25.95792664 -0.18673706 25.1434021 C-0.17560955 22.63710916 -0.15051926 20.13118355 -0.125 17.625 C-0.11496058 15.91797394 -0.10583641 14.21094223 -0.09765625 12.50390625 C-0.07569463 8.3357976 -0.04121671 4.16796092 0 0 Z " fill="#EAF8F3" transform="translate(378,401)"/>
<path d="M0 0 C0.79703701 -0.00397441 1.59407401 -0.00794881 2.41526365 -0.01204365 C5.08305477 -0.02165964 7.75031467 -0.00985287 10.41809082 0.00190735 C12.33187559 -0.00052085 14.24565909 -0.00424044 16.15943909 -0.00915527 C21.35566169 -0.01856407 26.55169593 -0.00913886 31.74790382 0.00417686 C37.18414973 0.01548951 42.62038633 0.01138399 48.05664062 0.00942993 C57.18610717 0.0085469 66.31549947 0.01962932 75.44494629 0.03804016 C86.0019537 0.0592079 96.55885234 0.0627177 107.11587667 0.0564782 C117.26867707 0.05078467 127.42143914 0.05643009 137.57423401 0.06765175 C141.89629322 0.07229787 146.21832899 0.07317152 150.54039001 0.0710659 C155.62932735 0.06918307 160.71815389 0.07728661 165.80706596 0.0931263 C167.67553181 0.09737091 169.5440089 0.09821851 171.41247749 0.0954361 C173.96138612 0.0922161 176.50996334 0.10129153 179.05883789 0.11352539 C180.16997806 0.10785641 180.16997806 0.10785641 181.3035655 0.10207289 C186.24275386 0.14405639 190.19200903 0.53681189 193.77941895 4.1242218 C196.7268176 9.42953938 195.9182887 14.42851043 194.64587402 20.11347961 C194.48663452 20.86572815 194.32739502 21.61797668 194.16333008 22.39302063 C193.63554337 24.87347128 193.09236779 27.35027785 192.5489502 29.8273468 C192.17502726 31.56906999 191.80205235 33.31099694 191.42997742 35.05311584 C190.44654475 39.64486122 189.44995938 44.23365601 188.45068359 48.82197571 C187.44989266 53.42878473 186.46200471 58.03835601 185.47277832 62.6476593 C181.77810479 79.83672001 181.77810479 79.83672001 180.54485798 85.40994644 C179.66442887 89.39372895 178.82740699 93.37955479 178.05758667 97.38630676 C177.89395724 98.20249859 177.73032782 99.01869041 177.56173992 99.85961533 C177.25246032 101.40489293 176.9575316 102.95314404 176.68011951 104.50445938 C175.64978836 109.53234563 173.97620009 112.12582995 170.02941895 115.3742218 C167.26240116 116.7577307 165.01145502 116.51617088 161.91365051 116.53485107 C159.95578865 116.54991951 159.95578865 116.54991951 157.95837402 116.56529236 C156.50329647 116.57132277 155.04821832 116.57720774 153.59313965 116.58296204 C152.0672738 116.5924984 150.54141013 116.60238946 149.01554871 116.61260986 C143.99545873 116.64402392 138.97535204 116.66426673 133.9552002 116.68281555 C133.10127174 116.68611287 132.24734329 116.6894102 131.36753821 116.69280744 C123.31444686 116.72359252 115.2613518 116.75030164 107.20821857 116.76722622 C96.9064013 116.78912983 86.60510546 116.83108892 76.30349666 116.90066379 C69.06094693 116.94791721 61.8185378 116.97216166 54.57583874 116.97942311 C50.2499617 116.98437797 45.92467203 116.99944185 41.59896278 117.0391674 C37.5267836 117.07607074 33.4555263 117.08443189 29.38321114 117.07116127 C27.89127156 117.07121516 26.39929077 117.08148854 24.90750504 117.1029129 C12.24535382 117.27499017 12.24535382 117.27499017 7.67080688 113.52891541 C4.84792636 110.6164202 3.80764951 107.84143607 3.0333252 103.83906555 C2.78518066 102.61767883 2.53703613 101.39629211 2.28137207 100.13789368 C1.94009277 98.2439386 1.94009277 98.2439386 1.59191895 96.3117218 C1.3373291 95.0452179 1.08273926 93.77871399 0.82043457 92.47383118 C-1.13341699 82.50444842 -1.13341699 82.50444842 -0.97058105 77.3742218 C1.21028876 80.64552652 1.6487728 82.77976069 2.3614502 86.6164093 C2.60314941 87.84746399 2.84484863 89.07851868 3.09387207 90.34687805 C3.59071372 92.93875694 4.07777384 95.53253088 4.55480957 98.12812805 C4.80037598 99.36176086 5.04594238 100.59539368 5.2989502 101.8664093 C5.51140381 102.99417786 5.72385742 104.12194641 5.94274902 105.28388977 C7.29684233 109.13473523 8.89202225 110.77862803 12.02941895 113.3742218 C15.09699072 114.11370261 15.09699072 114.11370261 18.48144531 113.99568176 C20.43720741 114.01249496 20.43720741 114.01249496 22.43247986 114.02964783 C23.8703963 114.01673772 25.30830829 114.00332363 26.74621582 113.98945618 C28.26592122 113.99295848 29.78562295 113.99861829 31.30531311 114.00627136 C35.42736591 114.02051366 39.54875117 114.00346373 43.67074013 113.97998619 C47.98589447 113.95987159 52.30102124 113.96575706 56.61621094 113.96809387 C63.86262006 113.96804031 71.10876838 113.94828738 78.35510254 113.91621399 C86.73090669 113.87932142 95.10636922 113.8705385 103.48224401 113.8775115 C111.54204766 113.88381846 119.60173426 113.87305865 127.66151428 113.85354614 C131.09043548 113.84537495 134.51929681 113.84266208 137.94822693 113.84423828 C141.98666246 113.84511774 146.02477373 113.83088478 150.0631237 113.80501175 C151.54456447 113.79785442 153.02603974 113.79576426 154.50749397 113.79912949 C156.53081563 113.80284867 158.55414416 113.78624313 160.57739258 113.76863098 C161.70931282 113.76490227 162.84123306 113.76117355 164.00745392 113.75733185 C167.40935596 113.32605523 169.29886881 112.41932508 172.02941895 110.3742218 C173.20301154 108.03361005 173.20301154 108.03361005 173.73254395 105.2492218 C173.98600586 104.17164612 174.23946777 103.09407043 174.50061035 101.98384094 C174.75761719 100.79266663 175.01462402 99.60149231 175.27941895 98.3742218 C175.70940186 96.49368103 175.70940186 96.49368103 176.14807129 94.57514954 C177.14588527 90.18274069 178.09156684 85.77977262 179.02941895 81.3742218 C179.20984741 80.52740845 179.39027588 79.68059509 179.57617188 78.80812073 C181.34618823 70.48316037 183.09669608 62.15420272 184.81335449 53.81806946 C186.95178805 43.43899313 189.11736657 33.07797078 191.70959473 22.80024719 C193.62458892 15.11307001 193.62458892 15.11307001 193.02941895 7.3742218 C190.16389945 4.42425207 188.49711216 3.43842131 184.38275909 2.87365055 C182.94159943 2.85303656 181.50002383 2.85432934 180.05883789 2.87301636 C179.26180089 2.86748196 178.46476388 2.86194756 177.64357424 2.85624546 C174.97564699 2.84264361 172.30865601 2.85760527 169.64074707 2.87251282 C167.72696027 2.86872947 165.81317621 2.86322929 163.8993988 2.85614014 C158.7031276 2.84217039 153.50718694 2.85336606 148.31093407 2.86985135 C142.87468578 2.88369459 137.43845682 2.8772426 132.00219727 2.87371826 C122.87270781 2.87101557 113.74334979 2.88449688 104.6138916 2.90766907 C94.0568489 2.93427913 83.50002596 2.9360261 72.94296122 2.9242807 C62.79014682 2.91350392 52.63741196 2.91968923 42.48460388 2.93383598 C38.16253277 2.93959663 33.84051985 2.93951247 29.51844788 2.93477058 C24.42946034 2.93000055 19.34071365 2.94010369 14.25177193 2.96172523 C12.38330968 2.9672929 10.51482429 2.96775859 8.6463604 2.96277237 C6.09730575 2.95682268 3.54898822 2.96931837 1 2.98654175 C0.25923989 2.9805317 -0.48152022 2.97452166 -1.24472761 2.96832949 C-6.06803963 3.0276597 -9.49905002 3.90269077 -12.97058105 7.3742218 C-13.2025097 8.88891629 -13.38273344 10.41176742 -13.53308105 11.9367218 C-13.61687012 12.76301086 -13.70065918 13.58929993 -13.7869873 14.44062805 C-13.84757324 15.07871399 -13.90815918 15.71679993 -13.97058105 16.3742218 C-14.30058105 16.3742218 -14.63058105 16.3742218 -14.97058105 16.3742218 C-16.30584117 9.21237209 -16.30584117 9.21237209 -14.84558105 5.5617218 C-10.56924868 0.57266736 -6.31610554 -0.06287698 0 0 Z " fill="#D4F2E6" transform="translate(316.9705810546875,234.6257781982422)"/>
<path d="M0 0 C1.92578125 1.0703125 1.92578125 1.0703125 3.92578125 3.0703125 C3.92578125 4.0603125 3.92578125 5.0503125 3.92578125 6.0703125 C3.26578125 5.8021875 2.60578125 5.5340625 1.92578125 5.2578125 C0.93578125 4.8659375 -0.05421875 4.4740625 -1.07421875 4.0703125 C-2.27046875 3.5340625 -3.46671875 2.9978125 -4.69921875 2.4453125 C-10.63925475 0.23611505 -17.15600951 -0.08481199 -23.07421875 2.2578125 C-26.79085874 5.6260175 -27.95225572 7.9726452 -28.51171875 13.0078125 C-28.30781173 17.33879764 -27.02877444 19.82030124 -24.07421875 23.0703125 C-20.91508055 25.09188683 -17.54109822 26.48127318 -14.0703125 27.875 C-10.58983577 29.2846294 -9.22507497 29.84402817 -7.07421875 33.0703125 C-7.26171875 36.1328125 -7.26171875 36.1328125 -8.07421875 39.0703125 C-11.44981301 41.32070867 -12.05397518 41.24647259 -15.88671875 40.7578125 C-16.76714844 40.64953125 -17.64757812 40.54125 -18.5546875 40.4296875 C-21.40395505 40.02328035 -24.24355555 39.59175046 -27.07421875 39.0703125 C-28.55921875 41.5453125 -28.55921875 41.5453125 -30.07421875 44.0703125 C-22.88943406 46.99293678 -15.82864451 48.3459758 -8.07421875 47.0703125 C-4.9056691 44.96242142 -3.19157909 43.24635302 -1.07421875 40.0703125 C-0.50056516 35.09302402 -0.25172053 29.37126216 -3.07421875 25.0703125 C-4.71432738 24.34074694 -6.38681604 23.68259863 -8.07421875 23.0703125 C-19.54532684 18.86365037 -19.54532684 18.86365037 -22.07421875 15.0703125 C-22.57421875 12.5078125 -22.57421875 12.5078125 -22.07421875 10.0703125 C-19.68822296 7.18723425 -18.06233673 7.0691243 -14.32421875 6.6953125 C-9.81046392 6.84803353 -6.199426 8.30236654 -2.07421875 10.0703125 C-2.07421875 9.4103125 -2.07421875 8.7503125 -2.07421875 8.0703125 C-3.21890625 7.85375 -3.21890625 7.85375 -4.38671875 7.6328125 C-7.07421875 7.0703125 -7.07421875 7.0703125 -10.07421875 6.0703125 C-11.73689749 5.92810971 -13.40573605 5.85010683 -15.07421875 5.8203125 C-15.94046875 5.79453125 -16.80671875 5.76875 -17.69921875 5.7421875 C-20.10952144 5.88911618 -20.10952144 5.88911618 -21.859375 7.3359375 C-23.30809182 9.40420203 -23.50696661 10.56118239 -23.51171875 13.0703125 C-23.53105469 13.7509375 -23.55039062 14.4315625 -23.5703125 15.1328125 C-22.846839 17.95834678 -21.55032608 18.59290179 -19.07421875 20.0703125 C-17.11341241 20.90641974 -15.13210648 21.69546944 -13.13671875 22.4453125 C-4.71462971 25.92109528 -4.71462971 25.92109528 -2.07421875 30.0703125 C-1.22265368 33.96008855 -1.16002128 37.39833917 -3.1015625 40.94921875 C-5.22605158 43.6290454 -6.81422751 44.98364875 -10.07421875 46.0703125 C-16.28903662 46.49165608 -20.35796393 45.520136 -26.07421875 43.0703125 C-26.07421875 42.4103125 -26.07421875 41.7503125 -26.07421875 41.0703125 C-25.08421875 41.2353125 -24.09421875 41.4003125 -23.07421875 41.5703125 C-14.71646595 42.85022008 -14.71646595 42.85022008 -7.07421875 40.0703125 C-5.87149056 37.66485612 -5.97350403 36.12034297 -6.01171875 33.4453125 C-6.02074219 32.62804687 -6.02976562 31.81078125 -6.0390625 30.96875 C-6.05066406 30.34226562 -6.06226563 29.71578125 -6.07421875 29.0703125 C-6.85796875 28.8228125 -7.64171875 28.5753125 -8.44921875 28.3203125 C-9.64546875 27.9078125 -10.84171875 27.4953125 -12.07421875 27.0703125 C-12.8940625 26.79058594 -13.71390625 26.51085937 -14.55859375 26.22265625 C-20.61632833 24.00925323 -24.10017283 22.01840434 -27.07421875 16.0703125 C-27.46278215 11.95154049 -27.53242338 9.78131968 -25.26171875 6.2578125 C-22.29314105 3.2892348 -20.25479102 1.77216125 -16.07421875 1.6953125 C-9.67667779 1.81086743 -3.74522979 4.23480698 1.92578125 7.0703125 C0.05078125 11.8203125 0.05078125 11.8203125 -1.07421875 14.0703125 C-5.67695848 13.30318921 -5.67695848 13.30318921 -7.88671875 12.0078125 C-11.27707708 10.55480179 -14.40776284 10.9480973 -18.07421875 11.0703125 C-18.07421875 12.7203125 -18.07421875 14.3703125 -18.07421875 16.0703125 C-17.130625 16.30814453 -17.130625 16.30814453 -16.16796875 16.55078125 C-9.04178149 18.49331121 -2.60930433 20.66379126 1.92578125 26.7578125 C3.72985582 32.73380952 4.06419587 37.91125029 1.11328125 43.5078125 C-2.44629505 47.67760188 -5.0246893 50.68062523 -10.703125 51.40625 C-19.3814221 51.52180655 -26.7827751 49.93127494 -34.07421875 45.0703125 C-32.62377604 40.96072483 -30.56311123 37.63772505 -28.07421875 34.0703125 C-25.82939359 34.56916254 -23.91209035 35.14687314 -21.82421875 36.1328125 C-18.10277888 37.40148518 -14.99678387 37.20328081 -11.07421875 37.0703125 C-10.74421875 35.7503125 -10.41421875 34.4303125 -10.07421875 33.0703125 C-10.90953125 32.83248047 -10.90953125 32.83248047 -11.76171875 32.58984375 C-19.64368867 30.1799847 -26.33736424 27.08085717 -31.07421875 20.0703125 C-33.11158459 15.99558082 -32.89460185 11.46687264 -32.07421875 7.0703125 C-24.51433351 -5.04308501 -12.40605956 -5.48221944 0 0 Z " fill="#E9F8F2" transform="translate(320.07421875,403.9296875)"/>
<path d="M0 0 C4.47894321 -0.11712011 8.95748714 -0.1875608 13.4375 -0.25 C14.69755859 -0.28351563 15.95761719 -0.31703125 17.25585938 -0.3515625 C25.92955656 -0.44214942 32.44204202 0.3227322 39.3046875 5.859375 C46.73528113 14.80566186 47.98848497 22.34701519 47 34 C45.65511647 40.7486498 40.21457752 46.2916034 35.08984375 50.609375 C30.64028764 53.57020112 26.91464772 54.24563647 21.60546875 54.1953125 C20.52160889 54.19031738 19.43774902 54.18532227 18.32104492 54.18017578 C16.9569751 54.16196777 15.59290527 54.14375977 14.1875 54.125 C9.835625 54.08375 5.48375 54.0425 1 54 C1 37.83 1 21.66 1 5 C4.96 4.9175 8.92 4.835 13 4.75 C14.84851563 4.69537598 14.84851563 4.69537598 16.734375 4.63964844 C24.59034392 4.56078346 29.97491716 5.59655158 36.0234375 10.7109375 C40.64075315 16.39584059 42.44832244 21.33259208 42.25 28.6953125 C41.36533049 36.85085958 37.4634753 41.03130689 31.375 46.25 C24.82152212 51.07887844 20.5488289 49 11 49 C11 37.78 11 26.56 11 15 C11.99 15 12.98 15 14 15 C14 25.23 14 35.46 14 46 C25.58164363 45.30731249 25.58164363 45.30731249 34.6015625 39.37890625 C38.79991748 33.7380997 38.97762574 27.79769675 38 21 C36.6438095 16.33288632 34.80485947 13.66786211 31.0625 10.5625 C22.45897712 6.17294751 12.43680849 7.47184042 3 7 C3 21.52 3 36.04 3 51 C8.6925 50.87625 8.6925 50.87625 14.5 50.75 C15.68013672 50.73420898 16.86027344 50.71841797 18.07617188 50.70214844 C25.64047886 50.459539 31.10207767 49.21636027 36.98828125 44.359375 C41.24744345 39.18304808 43.55681706 34.35552798 44.4375 27.6875 C43.81644566 22.45289916 41.93334065 17.87605595 40 13 C39.505 11.515 39.505 11.515 39 10 C36.99983534 8.79117904 36.99983534 8.79117904 35 8 C35 7.34 35 6.68 35 6 C30.57576028 4.32102754 26.79216495 3.71129641 22.0703125 3.5859375 C20.78125 3.54726563 19.4921875 3.50859375 18.1640625 3.46875 C16.81771293 3.43730242 15.47135868 3.40605489 14.125 3.375 C12.75518486 3.33676959 11.38539245 3.29771499 10.015625 3.2578125 C6.67721737 3.16377285 3.33881186 3.07811943 0 3 C0 2.01 0 1.02 0 0 Z " fill="#FAFDFC" transform="translate(429,401)"/>
<path d="M0 0 C1.32 0 2.64 0 4 0 C5.89111328 2.0637207 5.89111328 2.0637207 7.8203125 4.92578125 C8.52027344 5.94994141 9.22023438 6.97410156 9.94140625 8.02929688 C11.02228516 9.65448242 11.02228516 9.65448242 12.125 11.3125 C12.85332031 12.38435547 13.58164062 13.45621094 14.33203125 14.56054688 C16.23458015 17.36513605 18.1219399 20.17897733 20 23 C20.66 23.99 21.32 24.98 22 26 C22.22705078 28.63549805 22.22705078 28.63549805 22.1953125 31.76171875 C22.18886719 32.87998047 22.18242187 33.99824219 22.17578125 35.15039062 C22.15902344 36.31763672 22.14226562 37.48488281 22.125 38.6875 C22.11597656 39.86634766 22.10695313 41.04519531 22.09765625 42.25976562 C22.07406423 45.17338026 22.0411454 48.08658892 22 51 C24.64 51 27.28 51 30 51 C29.95286865 50.31075439 29.9057373 49.62150879 29.85717773 48.91137695 C28.44502069 25.13112908 28.44502069 25.13112908 36.59765625 15.61328125 C37.39042969 14.75089844 38.18320312 13.88851563 39 13 C40.22054786 11.25178094 41.41245957 9.48288685 42.5625 7.6875 C43.27599609 6.61048828 43.27599609 6.61048828 44.00390625 5.51171875 C44.33261719 5.01285156 44.66132812 4.51398438 45 4 C44.34 4 43.68 4 43 4 C32.35469264 15.09043012 26.43781084 26.56611854 26.59350586 41.93579102 C26.67593349 44.29864794 26.804497 46.6441725 27 49 C26.01 49 25.02 49 24 49 C22.62387193 36.20933744 21.95648822 25.46336162 30.1875 14.9375 C31.87718046 12.8715749 33.59695678 10.85583703 35.38745117 8.87670898 C36.98899817 7.0128041 38.292352 5.09268581 39.625 3.03125 C42 0 42 0 44.45703125 -0.68359375 C45.23433594 -0.60238281 46.01164063 -0.52117187 46.8125 -0.4375 C47.60269531 -0.37433594 48.39289062 -0.31117188 49.20703125 -0.24609375 C50.09455078 -0.12427734 50.09455078 -0.12427734 51 0 C49.6669191 3.66953851 48.02946678 6.64438553 45.77734375 9.828125 C44.84631836 11.15070313 44.84631836 11.15070313 43.89648438 12.5 C43.25001953 13.4075 42.60355469 14.315 41.9375 15.25 C41.28716797 16.17296875 40.63683594 17.0959375 39.96679688 18.046875 C35.18268327 24.81731673 35.18268327 24.81731673 34 26 C33.8415735 28.0708472 33.74875578 30.14678029 33.68359375 32.22265625 C33.62075195 34.11274414 33.62075195 34.11274414 33.55664062 36.04101562 C33.51682404 37.38150736 33.47711186 38.7220022 33.4375 40.0625 C33.39431958 41.40691523 33.35070544 42.7513166 33.30664062 44.09570312 C33.20014717 47.39700013 33.0995325 50.69848579 33 54 C28.38 54 23.76 54 19 54 C19.07863281 52.27136719 19.15726562 50.54273438 19.23828125 48.76171875 C19.56294142 32.38402496 17.23771105 22.52569516 6.61523438 10.00634766 C4.0900506 6.86971521 2.03689769 3.46702284 0 0 Z " fill="#ECF9F4" transform="translate(474,401)"/>
<path d="M0 0 C3.57515631 -0.79122312 6.4575989 -1.02358332 10 0 C13.33123553 3.63988035 15.686426 7.65720189 18 12 C17.67 12.66 17.34 13.32 17 14 C16.34 14 15.68 14 15 14 C13.2734375 11.8125 13.2734375 11.8125 11.375 9 C10.74335938 8.071875 10.11171875 7.14375 9.4609375 6.1875 C8.97882813 5.465625 8.49671875 4.74375 8 4 C7.67 4.33 7.34 4.66 7 5 C8.28610133 6.9829888 9.57849139 8.96133376 10.875 10.9375 C11.59429687 12.03964844 12.31359375 13.14179688 13.0546875 14.27734375 C14.71783283 17.05381966 14.71783283 17.05381966 17 18 C17.23460937 17.31550781 17.46921875 16.63101562 17.7109375 15.92578125 C19.27672623 12.37191531 21.38052475 9.33327234 23.625 6.1875 C24.25535156 5.2912793 24.25535156 5.2912793 24.8984375 4.37695312 C25.92779728 2.91479435 26.9632823 1.45695101 28 0 C29.32 0.33 30.64 0.66 32 1 C31.34 1.99 30.68 2.98 30 4 C30.66 4.33 31.32 4.66 32 5 C30.23058467 7.58430719 28.45921687 10.16727024 26.6875 12.75 C26.18798828 13.47960937 25.68847656 14.20921875 25.17382812 14.9609375 C24.68720703 15.66992188 24.20058594 16.37890625 23.69921875 17.109375 C23.25408936 17.75874023 22.80895996 18.40810547 22.3503418 19.07714844 C21 21 21 21 19.36328125 22.890625 C17.6177391 25.59146386 17.57338374 27.44077155 17.48828125 30.640625 C17.45283203 31.71054687 17.41738281 32.78046875 17.38085938 33.8828125 C17.35830078 34.99398437 17.33574219 36.10515625 17.3125 37.25 C17.27833984 38.37664062 17.24417969 39.50328125 17.20898438 40.6640625 C17.12656986 43.44260901 17.05739702 46.22084252 17 49 C17.99 49 18.98 49 20 49 C19.93192139 48.40276123 19.86384277 47.80552246 19.79370117 47.19018555 C18.29750733 31.95290081 20.29416203 22.78072363 29.86328125 10.73828125 C30.65665894 9.79529175 30.65665894 9.79529175 31.46606445 8.83325195 C33.05130124 6.93868837 34.53310473 4.98707869 36 3 C36.99 3.33 37.98 3.66 39 4 C38.41992188 4.83402344 37.83984375 5.66804688 37.2421875 6.52734375 C36.45308143 7.66403225 35.66402145 8.80075275 34.875 9.9375 C34.30652344 10.75444336 34.30652344 10.75444336 33.7265625 11.58789062 C32.92099213 12.74925457 32.12441576 13.91689264 31.33544922 15.08959961 C30.40162593 16.42546199 29.41329185 17.72410408 28.38720703 18.99047852 C23.4313816 25.45167472 23.10657482 31.07979177 23.125 39.0625 C23.104375 40.21427734 23.08375 41.36605469 23.0625 42.55273438 C23.01575332 45.36922157 22.99552636 48.18320737 23 51 C20.36 51 17.72 51 15 51 C15.04825928 50.35788574 15.09651855 49.71577148 15.14624023 49.05419922 C16.22936533 30.71110927 12.073375 20.05797802 0.24755859 6.0769043 C-1 4 -1 4 -0.69677734 1.72973633 C-0.46684082 1.15892334 -0.2369043 0.58811035 0 0 Z " fill="#3DC48E" transform="translate(481,401)"/>
<path d="M0 0 C0.33 0 0.66 0 1 0 C1.02505615 0.9787207 1.0501123 1.95744141 1.07592773 2.96582031 C1.17023983 6.60380704 1.27040203 10.24161343 1.37231445 13.87939453 C1.41557338 15.45259374 1.45725474 17.02583717 1.49731445 18.59912109 C1.55523662 20.86309115 1.61886714 23.12684051 1.68359375 25.390625 C1.70030624 26.09181458 1.71701874 26.79300415 1.73423767 27.51544189 C1.83410317 30.82197073 2.11349404 33.81509279 3 37 C2.21814938 41.41877372 0.44921488 44.98057127 -2.9375 47.9375 C-7.75620101 51.18274762 -11.58861481 51.18070197 -17.375 51.25 C-18.66148437 51.27578125 -19.94796875 51.3015625 -21.2734375 51.328125 C-26.05755422 50.90688202 -29.45268217 49.78989022 -32.64453125 46.09765625 C-33.02996094 45.42605469 -33.41539062 44.75445312 -33.8125 44.0625 C-34.40998047 43.05896484 -34.40998047 43.05896484 -35.01953125 42.03515625 C-37.20198542 37.50504221 -37.13300572 33.12411214 -37.09765625 28.171875 C-37.0962413 27.42286926 -37.09482635 26.67386353 -37.09336853 25.90216064 C-37.08778659 23.51806588 -37.07523745 21.13406622 -37.0625 18.75 C-37.05748266 17.13020969 -37.05292016 15.51041791 -37.04882812 13.890625 C-37.03782308 9.92704688 -37.02057091 5.96353955 -37 2 C-34.36 2 -31.72 2 -29 2 C-28.98541748 3.00377686 -28.97083496 4.00755371 -28.95581055 5.04174805 C-28.89767948 8.7787575 -28.82044835 12.51517369 -28.73754883 16.25170898 C-28.7043689 17.86651963 -28.67631542 19.48144431 -28.65356445 21.09643555 C-28.61988975 23.42285592 -28.56757037 25.74823783 -28.51171875 28.07421875 C-28.50532883 28.79212082 -28.4989389 29.51002289 -28.49235535 30.24967957 C-28.36425028 34.65266797 -27.6658942 37.47339456 -25 41 C-21.57241788 43.57068659 -18.16064086 43.35867594 -14 43 C-10.01933905 41.42275698 -8.39332726 40.58999089 -6 37 C-5.75952354 34.31995798 -5.62726502 31.73445797 -5.5859375 29.05078125 C-5.56657135 28.27816452 -5.5472052 27.50554779 -5.5272522 26.70951843 C-5.46751521 24.2439576 -5.42109514 21.77834993 -5.375 19.3125 C-5.33681475 17.6399537 -5.29776269 15.96742695 -5.2578125 14.29492188 C-5.16181867 10.19677353 -5.07776623 6.09853312 -5 2 C-4.01 2 -3.02 2 -2 2 C-1.92554593 6.73222455 -1.8712553 11.46410411 -1.83520508 16.19677734 C-1.82016824 17.80491072 -1.79973328 19.41300344 -1.77368164 21.02099609 C-1.73707178 23.33962064 -1.72022278 25.65770049 -1.70703125 27.9765625 C-1.69154739 28.68930328 -1.67606354 29.40204407 -1.66011047 30.13638306 C-1.65827544 35.64530952 -3.02364462 39.50807365 -6.4375 43.8125 C-10.50269154 46.90204557 -16.15174414 46.31197472 -21 46 C-25.06060314 45.23384846 -26.50271811 44.6027419 -29.14355469 41.40185547 C-31.27287764 37.49996357 -31.51973597 34.51586925 -31.390625 30.1953125 C-31.38496521 29.4713327 -31.37930542 28.74735291 -31.37347412 28.00143433 C-31.35123667 25.70859212 -31.30106987 23.41736284 -31.25 21.125 C-31.22991841 19.56252271 -31.21167055 18.00002071 -31.1953125 16.4375 C-31.15141416 12.6243867 -31.08247971 8.81246598 -31 5 C-31.99 5 -32.98 5 -34 5 C-33.95562801 9.57222796 -33.88557066 14.14310354 -33.79248047 18.71459961 C-33.7643889 20.26722403 -33.74311593 21.81998833 -33.72900391 23.37280273 C-33.70740834 25.61514279 -33.66068049 27.8558221 -33.609375 30.09765625 C-33.60753204 31.12621483 -33.60753204 31.12621483 -33.60565186 32.17555237 C-33.44440659 37.57385112 -31.95832901 40.63240706 -29 45 C-23.73338717 49.08162494 -17.3645252 48.62945854 -11 48 C-5.68755186 46.29242738 -3.64212741 43.84755654 -1 39 C-0.42425309 35.95755842 -0.39524381 32.97336314 -0.390625 29.8828125 C-0.37408875 29.02565643 -0.35755249 28.16850037 -0.34051514 27.28536987 C-0.29218337 24.56517262 -0.27069762 21.84553379 -0.25 19.125 C-0.22182785 17.27340963 -0.19189868 15.4218451 -0.16015625 13.5703125 C-0.08642862 9.04692101 -0.0367637 4.52383681 0 0 Z " fill="#5BCD9F" transform="translate(418,401)"/>
<path d="M0 0 C0.79703701 -0.00397441 1.59407401 -0.00794881 2.41526365 -0.01204365 C5.08305477 -0.02165964 7.75031467 -0.00985287 10.41809082 0.00190735 C12.33187559 -0.00052085 14.24565909 -0.00424044 16.15943909 -0.00915527 C21.35566169 -0.01856407 26.55169593 -0.00913886 31.74790382 0.00417686 C37.18414973 0.01548951 42.62038633 0.01138399 48.05664062 0.00942993 C57.18610717 0.0085469 66.31549947 0.01962932 75.44494629 0.03804016 C86.0019537 0.0592079 96.55885234 0.0627177 107.11587667 0.0564782 C117.26867707 0.05078467 127.42143914 0.05643009 137.57423401 0.06765175 C141.89629322 0.07229787 146.21832899 0.07317152 150.54039001 0.0710659 C155.62932735 0.06918307 160.71815389 0.07728661 165.80706596 0.0931263 C167.67553181 0.09737091 169.5440089 0.09821851 171.41247749 0.0954361 C173.96138612 0.0922161 176.50996334 0.10129153 179.05883789 0.11352539 C180.16997806 0.10785641 180.16997806 0.10785641 181.3035655 0.10207289 C185.3122362 0.13614692 188.45494326 0.51059144 192.02941895 2.3742218 C193.90441895 4.3117218 193.90441895 4.3117218 195.02941895 6.3742218 C194.69941895 7.3642218 194.36941895 8.3542218 194.02941895 9.3742218 C193.41066895 8.5698468 192.79191895 7.7654718 192.15441895 6.9367218 C190.28777854 4.33547661 190.28777854 4.33547661 188.02941895 3.3742218 C185.48393039 3.27214821 182.96554334 3.23083659 180.41960144 3.23377991 C179.62512771 3.23080878 178.83065398 3.22783766 178.01210529 3.22477651 C175.33516743 3.21606647 172.65827417 3.21457932 169.98132324 3.21308899 C168.06798201 3.20846244 166.15464171 3.203438 164.24130249 3.19804382 C159.03257399 3.18490194 153.82385838 3.17847136 148.61511588 3.17403316 C145.36303072 3.17110526 142.11094911 3.16700099 138.85886574 3.16252899 C128.69005178 3.14884922 118.5212459 3.13918497 108.35242337 3.1353271 C96.60256737 3.13084532 84.85282765 3.11329382 73.10300702 3.08432651 C64.02865124 3.06272952 54.95432822 3.05262388 45.87994701 3.05128598 C40.45663382 3.05023651 35.03342986 3.04429857 29.61014366 3.02646637 C24.50892156 3.01002001 19.40789119 3.00781346 14.30665207 3.01660538 C12.43334122 3.0173776 10.56002021 3.01300871 8.68673515 3.00314713 C6.13098934 2.99048098 3.57592803 2.99627518 1.02018738 3.00672913 C0.27738091 2.99867272 -0.46542556 2.99061632 -1.23074132 2.98231578 C-6.06476989 3.02861845 -9.49154525 3.895186 -12.97058105 7.3742218 C-13.2025097 8.88891629 -13.38273344 10.41176742 -13.53308105 11.9367218 C-13.61687012 12.76301086 -13.70065918 13.58929993 -13.7869873 14.44062805 C-13.84757324 15.07871399 -13.90815918 15.71679993 -13.97058105 16.3742218 C-14.30058105 16.3742218 -14.63058105 16.3742218 -14.97058105 16.3742218 C-16.30584117 9.21237209 -16.30584117 9.21237209 -14.84558105 5.5617218 C-10.56924868 0.57266736 -6.31610554 -0.06287698 0 0 Z " fill="#E6F7F0" transform="translate(316.9705810546875,234.6257781982422)"/>
<path d="M0 0 C1.48030272 0.81042836 2.95921142 1.62340348 4.4375 2.4375 C5.67306641 3.11619141 5.67306641 3.11619141 6.93359375 3.80859375 C9 5 9 5 10 6 C10.12817931 9.03158976 10.18523213 12.03035288 10.1875 15.0625 C10.19974609 15.89716797 10.21199219 16.73183594 10.22460938 17.59179688 C10.2374724 23.09288379 9.46834175 27.70489887 8 33 C7.83837507 34.43384401 7.70256066 35.8716615 7.625 37.3125 C7 41 7 41 5.0625 42.8125 C4.0415625 43.4003125 4.0415625 43.4003125 3 44 C2.34 44.99 1.68 45.98 1 47 C-2.53311269 40.22820068 -2.68873872 34.28374612 -1.484375 26.79296875 C-0.90590235 22.26315471 -0.92916414 17.87078767 -1 13.3125 C-1.02560163 11.64199335 -1.04660188 9.97140842 -1.0625 8.30078125 C-1.07410156 7.57028564 -1.08570313 6.83979004 -1.09765625 6.0871582 C-0.99702362 3.93638724 -0.59182741 2.06527961 0 0 Z " fill="#41C590" transform="translate(360,98)"/>
<path d="M0 0 C12.54 0 25.08 0 38 0 C38 4.29 38 8.58 38 13 C32.06 13 26.12 13 20 13 C20 24.88 20 36.76 20 49 C19.01 49 18.02 49 17 49 C17 36.13 17 23.26 17 10 C23.27 10 29.54 10 36 10 C36 7.36 36 4.72 36 2 C24.78 2 13.56 2 2 2 C2 2.99 2 3.98 2 5 C11.9 5 21.8 5 32 5 C32 5.66 32 6.32 32 7 C21.44 7 10.88 7 0 7 C0 4.69 0 2.38 0 0 Z " fill="#F1FBF7" transform="translate(330,401)"/>
<path d="M0 0 C3.135 -0.12375 6.27 -0.2475 9.5 -0.375 C10.95696289 -0.45693604 10.95696289 -0.45693604 12.44335938 -0.54052734 C18.46698674 -0.65448124 21.79452996 0.56529105 26.42382812 4.42602539 C29.98545948 7.98269165 31.16287606 11.46141863 31.5 16.375 C31.27312681 22.78146666 27.88731325 26.84307057 23.8125 31.5 C19.62240363 33.73471807 15.65235785 33.32521336 11 33 C11 32.34 11 31.68 11 31 C12.19625 30.938125 13.3925 30.87625 14.625 30.8125 C19.48656871 30.20049401 21.63343451 28.52687813 25 25 C27.38537948 20.98822543 27.7427194 16.57264597 27 12 C24.98497111 8.24787724 23.54533858 6.36355905 20 4 C14.39 3.67 8.78 3.34 3 3 C3 14.88 3 26.76 3 39 C2.01 39 1.02 39 0 39 C0 26.13 0 13.26 0 0 Z " fill="#E9F8F2" transform="translate(435,411)"/>
<path d="M0 0 C4.47894321 -0.11712011 8.95748714 -0.1875608 13.4375 -0.25 C14.69755859 -0.28351563 15.95761719 -0.31703125 17.25585938 -0.3515625 C25.92955656 -0.44214942 32.44204202 0.3227322 39.3046875 5.859375 C46.73528113 14.80566186 47.98848497 22.34701519 47 34 C45.5155381 41.44905656 39.06182451 47.79958423 33 52 C29.58402476 53.62258824 27.88609948 54 24 54 C25 51 25 51 27.07421875 49.859375 C27.93660156 49.49328125 28.79898437 49.1271875 29.6875 48.75 C36.2259296 45.6208944 40.0653849 41.6938756 42.875 35 C45.48961635 26.81171049 43.04200175 20.67219718 40 13 C39.505 11.515 39.505 11.515 39 10 C36.99983534 8.79117904 36.99983534 8.79117904 35 8 C35 7.34 35 6.68 35 6 C30.57576028 4.32102754 26.79216495 3.71129641 22.0703125 3.5859375 C20.78125 3.54726563 19.4921875 3.50859375 18.1640625 3.46875 C16.81771293 3.43730242 15.47135868 3.40605489 14.125 3.375 C12.75518486 3.33676959 11.38539245 3.29771499 10.015625 3.2578125 C6.67721737 3.16377285 3.33881186 3.07811943 0 3 C0 2.01 0 1.02 0 0 Z " fill="#E8F8F1" transform="translate(429,401)"/>
<path d="M0 0 C0.99 0 1.98 0 3 0 C3.07445407 4.73222455 3.1287447 9.46410411 3.16479492 14.19677734 C3.17983176 15.80491072 3.20026672 17.41300344 3.22631836 19.02099609 C3.26292822 21.33962064 3.27977722 23.65770049 3.29296875 25.9765625 C3.30845261 26.68930328 3.32393646 27.40204407 3.33988953 28.13638306 C3.34172456 33.64530952 1.97635538 37.50807365 -1.4375 41.8125 C-5.50269154 44.90204557 -11.15174414 44.31197472 -16 44 C-20.06060314 43.23384846 -21.50271811 42.6027419 -24.14355469 39.40185547 C-26.27287764 35.49996357 -26.51973597 32.51586925 -26.390625 28.1953125 C-26.38496521 27.4713327 -26.37930542 26.74735291 -26.37347412 26.00143433 C-26.35123667 23.70859212 -26.30106987 21.41736284 -26.25 19.125 C-26.22991841 17.56252271 -26.21167055 16.00002071 -26.1953125 14.4375 C-26.15141416 10.6243867 -26.08247971 6.81246598 -26 3 C-27.65 3 -29.3 3 -31 3 C-31 2.34 -31 1.68 -31 1 C-28.69 1 -26.38 1 -24 1 C-23.98541748 1.97348389 -23.97083496 2.94696777 -23.95581055 3.94995117 C-23.89766704 7.57515476 -23.82043623 11.1997476 -23.73754883 14.82446289 C-23.70437468 16.39076801 -23.67631942 17.95719051 -23.65356445 19.52368164 C-23.61987884 21.78061763 -23.56755951 24.03648526 -23.51171875 26.29296875 C-23.50532883 26.98899704 -23.4989389 27.68502533 -23.49235535 28.40214539 C-23.3620302 32.74962132 -22.61805549 35.51398679 -20 39 C-16.57241788 41.57068659 -13.16064086 41.35867594 -9 41 C-5.01933905 39.42275698 -3.39332726 38.58999089 -1 35 C-0.75952354 32.31995798 -0.62726502 29.73445797 -0.5859375 27.05078125 C-0.56657135 26.27816452 -0.5472052 25.50554779 -0.5272522 24.70951843 C-0.46751521 22.2439576 -0.42109514 19.77834993 -0.375 17.3125 C-0.33681475 15.6399537 -0.29776269 13.96742695 -0.2578125 12.29492188 C-0.16181867 8.19677353 -0.07776623 4.09853312 0 0 Z " fill="#50CA99" transform="translate(413,403)"/>
<path d="M0 0 C4.62 0 9.24 0 14 0 C14 13.53 14 27.06 14 41 C16.64 41 19.28 41 22 41 C22 29.12 22 17.24 22 5 C22.99 5 23.98 5 25 5 C25 17.87 25 30.74 25 44 C20.71 44 16.42 44 12 44 C12 30.14 12 16.28 12 2 C8.04 2 4.08 2 0 2 C0 1.34 0 0.68 0 0 Z " fill="#F9FDFB" transform="translate(330,411)"/>
<path d="M0 0 C0.99 0 1.98 0 3 0 C3 10.23 3 20.46 3 31 C14.54387508 30.25674946 14.54387508 30.25674946 23.6015625 24.484375 C27.93504967 18.91620713 27.33356147 12.89741209 26.98046875 6.1953125 C27 3 27 3 29 1 C31.63883246 7.43215413 32.00699989 13.64156284 29.8125 20.25 C27.43118615 25.88465812 22.83278295 29.43900203 18 33 C12.29912287 34.90029238 6.00925213 34 0 34 C0 22.78 0 11.56 0 0 Z " fill="#EBF8F3" transform="translate(440,416)"/>
<path d="M0 0 C3.57515631 -0.79122312 6.4575989 -1.02358332 10 0 C13.33123553 3.63988035 15.686426 7.65720189 18 12 C17.67 12.66 17.34 13.32 17 14 C16.34 14 15.68 14 15 14 C13.2734375 11.8125 13.2734375 11.8125 11.375 9 C10.74335938 8.071875 10.11171875 7.14375 9.4609375 6.1875 C8.97882813 5.465625 8.49671875 4.74375 8 4 C7.67 4.33 7.34 4.66 7 5 C8.28610133 6.9829888 9.57849139 8.96133376 10.875 10.9375 C11.59429687 12.03964844 12.31359375 13.14179688 13.0546875 14.27734375 C14.71783283 17.05381966 14.71783283 17.05381966 17 18 C17.23460937 17.31550781 17.46921875 16.63101562 17.7109375 15.92578125 C19.27672623 12.37191531 21.38052475 9.33327234 23.625 6.1875 C24.25535156 5.2912793 24.25535156 5.2912793 24.8984375 4.37695312 C25.92779728 2.91479435 26.9632823 1.45695101 28 0 C29.32 0.33 30.64 0.66 32 1 C31.5875 1.58265625 31.175 2.1653125 30.75 2.765625 C26.59263791 8.66759439 22.59552541 14.64863031 18.69921875 20.7265625 C18.13847656 21.47679687 17.57773437 22.22703125 17 23 C16.34 23 15.68 23 15 23 C13.50366211 21.21166992 13.50366211 21.21166992 11.77734375 18.73046875 C11.15666016 17.84166016 10.53597656 16.95285156 9.89648438 16.03710938 C8.92678711 14.62655273 8.92678711 14.62655273 7.9375 13.1875 C7.28716797 12.25873047 6.63683594 11.32996094 5.96679688 10.37304688 C1.13784004 3.41352011 1.13784004 3.41352011 0 0 Z " fill="#ECF9F4" transform="translate(481,401)"/>
<path d="M0 0 C0.99 0 1.98 0 3 0 C3.01458252 0.9787207 3.02916504 1.95744141 3.04418945 2.96582031 C3.10225106 6.60404626 3.1794826 10.24165836 3.26245117 13.87939453 C3.29566372 15.45253522 3.32370717 17.02579401 3.34643555 18.59912109 C3.38005028 20.86346672 3.43236624 23.12673365 3.48828125 25.390625 C3.49467117 26.09181458 3.5010611 26.79300415 3.50764465 27.51544189 C3.6323468 31.67581764 4.2351156 33.89347097 7 37 C7 37.66 7 38.32 7 39 C10.63 39.66 14.26 40.32 18 41 C18 41.33 18 41.66 18 42 C19.65 42.33 21.3 42.66 23 43 C23 43.33 23 43.66 23 44 C9.92579728 44.57120303 9.92579728 44.57120303 5 41 C0.36173379 35.98565815 -0.14590778 32.09177444 -0.09765625 25.48828125 C-0.0962413 24.76005661 -0.09482635 24.03183197 -0.09336853 23.28153992 C-0.08777659 20.95848461 -0.07522562 18.63552612 -0.0625 16.3125 C-0.05748396 14.73632952 -0.05292123 13.16015752 -0.04882812 11.58398438 C-0.0378098 7.72261902 -0.02055074 3.86132592 0 0 Z " fill="#E3F6EF" transform="translate(384,406)"/>
<path d="M0 0 C1.32 0 2.64 0 4 0 C3.98259766 0.89912109 3.98259766 0.89912109 3.96484375 1.81640625 C3.91214134 7.10923386 4.00068209 12.35185996 4.29296875 17.63671875 C4.34654541 18.64081787 4.40012207 19.64491699 4.45532227 20.67944336 C4.56671047 22.69516925 4.68797435 24.71037856 4.82006836 26.72485352 C5.13971426 32.61661068 4.75210821 37.35580407 3 43 C1 42 1 42 -0.125 39.5625 C-1.50505243 33.94371511 -1.39832219 28.50636576 -0.4921875 22.8046875 C0.10429313 18.19379756 0.10838987 13.70443637 0.0625 9.0625 C0.05798828 8.18787109 0.05347656 7.31324219 0.04882812 6.41210938 C0.03714834 4.27470953 0.01921689 2.13734537 0 0 Z " fill="#ECF9F4" transform="translate(359,102)"/>
<path d="M0 0 C4.44784203 0.5083248 6.83569223 1.83569223 10 5 C13.89600926 10.24949299 14.73207455 15.56251032 14.52734375 22.015625 C13.67774058 26.82374958 11.39422744 30.52318795 8 34 C6.515 34.495 6.515 34.495 5 35 C6.11361001 31.93757247 7.32841962 29.49771117 9.125 26.75 C11.55026915 22.55592553 11.82189076 18.73845182 11 14 C9.10940798 8.59375651 5.76818072 5.966868 1 3 C0.67 2.01 0.34 1.02 0 0 Z " fill="#44C692" transform="translate(454,409)"/>
<path d="M0 0 C3 0.25 3 0.25 5 2.25 C5.25 5.25 5.25 5.25 5 8.25 C3 10.25 3 10.25 0 10.5 C-3 10.25 -3 10.25 -5 8.25 C-5.25 5.25 -5.25 5.25 -5 2.25 C-3 0.25 -3 0.25 0 0 Z " fill="#F9FDFB" transform="translate(407,288.75)"/>
<path d="M0 0 C0.33 0 0.66 0 1 0 C1.02505615 0.9787207 1.0501123 1.95744141 1.07592773 2.96582031 C1.17023983 6.60380704 1.27040203 10.24161343 1.37231445 13.87939453 C1.41557338 15.45259374 1.45725474 17.02583717 1.49731445 18.59912109 C1.55523662 20.86309115 1.61886714 23.12684051 1.68359375 25.390625 C1.70030624 26.09181458 1.71701874 26.79300415 1.73423767 27.51544189 C1.83410317 30.82197073 2.11349404 33.81509279 3 37 C2.20377045 41.5000389 0.40455939 45.0173092 -3.0625 48 C-6 50 -6 50 -8 50 C-8.495 48.515 -8.495 48.515 -9 47 C-7.8553125 46.4121875 -7.8553125 46.4121875 -6.6875 45.8125 C-3.55304565 43.69856567 -2.58431475 42.42696327 -1 39 C-0.54396617 35.99477699 -0.51173092 33.01637834 -0.48828125 29.98046875 C-0.47033005 29.12189774 -0.45237885 28.26332672 -0.43388367 27.3787384 C-0.37989259 24.6483749 -0.34592126 21.91818508 -0.3125 19.1875 C-0.279317 17.3313561 -0.24482642 15.47523508 -0.20898438 13.61914062 C-0.12417266 9.07955262 -0.05730823 4.54001514 0 0 Z " fill="#69D1A7" transform="translate(418,401)"/>
<path d="M0 0 C6.0410401 1.58217717 10.23272631 4.06879605 13.453125 9.41015625 C16.79952858 15.93948968 18.14196683 20.61772468 18 28 C15 26 15 26 14.41015625 23.609375 C14.29542969 22.66578125 14.18070312 21.7221875 14.0625 20.75 C13.0828386 14.60704123 11.16983083 11.00292077 6.5625 6.75 C4.09205256 5.06286516 1.82165422 3.9674243 -1 3 C-0.67 2.01 -0.34 1.02 0 0 Z " fill="#44C692" transform="translate(456,404)"/>
<path d="M0 0 C2.31 0 4.62 0 7 0 C7 11.55 7 23.1 7 35 C6.34 35 5.68 35 5 35 C5 24.11 5 13.22 5 2 C3.35 2 1.7 2 0 2 C0 1.34 0 0.68 0 0 Z " fill="#2FC086" transform="translate(382,404)"/>
<path d="M0 0 C0.391875 0.556875 0.78375 1.11375 1.1875 1.6875 C5.28991264 6.9257184 5.28991264 6.9257184 11 10 C13.57265818 10.07029121 16.11641431 10.09370832 18.6875 10.0625 C19.38939453 10.05798828 20.09128906 10.05347656 20.81445312 10.04882812 C22.54300538 10.03706927 24.27151365 10.01913454 26 10 C26 10.66 26 11.32 26 12 C22.96764223 13.51617889 20.12074987 13.21034412 16.75 13.25 C15.44546875 13.27578125 14.1409375 13.3015625 12.796875 13.328125 C8.75708377 12.97900724 6.41764292 12.13665231 3 10 C0.5625 7.0625 0.5625 7.0625 -1 4 C-0.75 1.625 -0.75 1.625 0 0 Z " fill="#43C691" transform="translate(384,439)"/>
<path d="M0 0 C3.96814965 3.75365507 7.16796503 7.7292482 10.3125 12.1875 C10.76689453 12.81591797 11.22128906 13.44433594 11.68945312 14.09179688 C15 18.74647556 15 18.74647556 15 21 C12.34877977 20.63733308 11.24072228 20.27324926 9.44433594 18.23413086 C8.72165527 17.11083374 8.72165527 17.11083374 7.984375 15.96484375 C7.45585937 15.15595703 6.92734375 14.34707031 6.3828125 13.51367188 C5.84398437 12.66353516 5.30515625 11.81339844 4.75 10.9375 C4.19570313 10.08349609 3.64140625 9.22949219 3.0703125 8.34960938 C1.70293178 6.23959947 0.34681837 4.1231711 -1 2 C-0.67 1.34 -0.34 0.68 0 0 Z " fill="#46C793" transform="translate(481,403)"/>
<path d="M0 0 C0.66 0.33 1.32 0.66 2 1 C2.66964286 8.76785714 2.66964286 8.76785714 -0.3125 12.375 C-4.96411093 16.91843393 -4.96411093 16.91843393 -8.48046875 17.1953125 C-9.37378906 17.17210937 -10.26710938 17.14890625 -11.1875 17.125 C-12.08855469 17.10695313 -12.98960937 17.08890625 -13.91796875 17.0703125 C-14.60503906 17.04710937 -15.29210937 17.02390625 -16 17 C-16 16.34 -16 15.68 -16 15 C-15.25234375 14.91363281 -14.5046875 14.82726562 -13.734375 14.73828125 C-7.60060047 13.92935831 -7.60060047 13.92935831 -2.375 10.875 C-0.59133561 7.14551992 -0.27926431 4.11914854 0 0 Z " fill="#30C086" transform="translate(318,435)"/>
<path d="M0 0 C2.67456717 0.37792797 3.80611814 0.79766916 5.703125 2.77734375 C6.21359375 3.49019531 6.7240625 4.20304687 7.25 4.9375 C7.77078125 5.64777344 8.2915625 6.35804688 8.828125 7.08984375 C10 9 10 9 10 11 C11.32 11.33 12.64 11.66 14 12 C13.01 13.485 13.01 13.485 12 15 C7.94096184 13.64698728 6.58364348 10.91214858 4.3125 7.5 C3.89677734 6.89285156 3.48105469 6.28570312 3.05273438 5.66015625 C0 1.15875154 0 1.15875154 0 0 Z " fill="#45C693" transform="translate(486,404)"/>
<path d="M0 0 C0.66 0.33 1.32 0.66 2 1 C-1.63 6.28 -5.26 11.56 -9 17 C-9.66 16.67 -10.32 16.34 -11 16 C-9.3929127 12.61708124 -7.49601962 9.47991249 -5.5 6.3125 C-4.8915625 5.33925781 -4.283125 4.36601562 -3.65625 3.36328125 C-2 1 -2 1 0 0 Z " fill="#42C591" transform="translate(511,405)"/>
<path d="M0 0 C5.28797899 1.59869132 9.53659888 3.00001846 12.875 7.5625 C13.431875 8.7690625 13.431875 8.7690625 14 10 C13.67 10.66 13.34 11.32 13 12 C11.5 10.625 11.5 10.625 10 9 C10 8.34 10 7.68 10 7 C9.278125 6.71125 8.55625 6.4225 7.8125 6.125 C5.20833333 5.08333333 2.60416667 4.04166667 0 3 C0 2.01 0 1.02 0 0 Z " fill="#48C794" transform="translate(306,424)"/>
<path d="M0 0 C6.20970773 -0.33266291 10.28264895 0.54970669 16 3 C16 3.66 16 4.32 16 5 C15.30519531 4.85691406 14.61039062 4.71382813 13.89453125 4.56640625 C10.83306655 3.96733421 7.76544167 3.44485302 4.6875 2.9375 C3.61886719 2.76089844 2.55023438 2.58429688 1.44921875 2.40234375 C0.64097656 2.26957031 -0.16726563 2.13679688 -1 2 C-0.67 1.34 -0.34 0.68 0 0 Z " fill="#32C187" transform="translate(302,409)"/>
<path d="M0 0 C0.99 0.33 1.98 0.66 3 1 C2.07544441 2.508013 1.1349253 4.00624917 0.1875 5.5 C-0.33457031 6.3353125 -0.85664062 7.170625 -1.39453125 8.03125 C-1.92433594 8.6809375 -2.45414063 9.330625 -3 10 C-3.99 10 -4.98 10 -6 10 C-4.6302836 6.00499382 -2.74277578 3.19990508 0 0 Z " fill="#4BC896" transform="translate(517,404)"/>
<path d="M0 0 C-2.15854239 2.15854239 -4.38021592 3.45499913 -7 5 C-8.58272601 6.58272601 -8.34735747 8.38034003 -8.5625 10.5625 C-8.64628906 11.38878906 -8.73007812 12.21507812 -8.81640625 13.06640625 C-8.87699219 13.70449219 -8.93757813 14.34257812 -9 15 C-9.33 15 -9.66 15 -10 15 C-11.34400949 7.79122183 -11.34400949 7.79122183 -9.75 4.125 C-6.7208655 0.44676525 -4.60532402 -0.24893643 0 0 Z " fill="#D1F1E4" transform="translate(312,236)"/>
<path d="M0 0 C0 0.66 0 1.32 0 2 C-2.76452033 3.38226016 -5.0461363 3.09525387 -8.125 3.0625 C-9.22070312 3.05347656 -10.31640625 3.04445313 -11.4453125 3.03515625 C-12.70988281 3.01775391 -12.70988281 3.01775391 -14 3 C-14.33 2.34 -14.66 1.68 -15 1 C-13.06263299 0.83179449 -11.12510094 0.66548905 -9.1875 0.5 C-7.56908203 0.36078125 -7.56908203 0.36078125 -5.91796875 0.21875 C-3 0 -3 0 0 0 Z " fill="#30C086" transform="translate(410,449)"/>
<path d="M0 0 C2.26171875 0.4609375 2.26171875 0.4609375 4.6875 1.375 C5.49574219 1.67148437 6.30398438 1.96796875 7.13671875 2.2734375 C7.75160156 2.51320313 8.36648438 2.75296875 9 3 C9 3.99 9 4.98 9 6 C5.04 4.68 1.08 3.36 -3 2 C-2.01 1.34 -1.02 0.68 0 0 Z " fill="#4EC998" transform="translate(312,405)"/>
<path d="M0 0 C4.31392226 0.4793247 6.16569547 1.7457985 9 5 C6 6 6 6 3.375 4.75 C1 3 1 3 0 0 Z " fill="#4EC998" transform="translate(454,409)"/>
<path d="M0 0 C0.928125 1.175625 0.928125 1.175625 1.875 2.375 C3.89858661 4.96837647 3.89858661 4.96837647 6 7 C5.34 7.66 4.68 8.32 4 9 C1.4375 6.75 1.4375 6.75 -1 4 C-0.8125 1.6875 -0.8125 1.6875 0 0 Z " fill="#44C692" transform="translate(389,437)"/>
<path d="M0 0 C0.66 0 1.32 0 2 0 C3.1577506 3.47325181 3.06866652 6.36067448 3 10 C2.01 9.34 1.02 8.68 0 8 C-0.40843923 5.28796348 -0.13336867 2.7562858 0 0 Z " fill="#58CC9E" transform="translate(471,422)"/>
<path d="M0 0 C0.33 0.99 0.66 1.98 1 3 C-0.28965176 4.37562854 -1.62689293 5.70766393 -3 7 C-3.66 7 -4.32 7 -5 7 C-3.75023244 3.34683329 -3.32901247 2.21934164 0 0 Z " fill="#E7F7F1" transform="translate(504,420)"/>
<path d="M0 0 C0.66 0.33 1.32 0.66 2 1 C0.1875 4 0.1875 4 -2 7 C-2.99 7 -3.98 7 -5 7 C-3.70700306 4.11562221 -2.34058637 2.12780579 0 0 Z " fill="#4BC896" transform="translate(511,405)"/>
<path d="M0 0 C1.093125 0.226875 2.18625 0.45375 3.3125 0.6875 C1.3125 2.6875 1.3125 2.6875 -0.6328125 2.8828125 C-2.65104167 2.81770833 -4.66927083 2.75260417 -6.6875 2.6875 C-4.58035839 -0.41123767 -3.86755884 -0.32775922 0 0 Z " fill="#D5F2E6" transform="translate(309.6875,411.3125)"/>
<path d="M0 0 C1.98 0.66 3.96 1.32 6 2 C5.01 3.485 5.01 3.485 4 5 C1.525 4.01 1.525 4.01 -1 3 C-0.67 2.01 -0.34 1.02 0 0 Z " fill="#5DCEA0" transform="translate(456,404)"/>
</svg>
